<?xml version="1.0" encoding="utf-8"?>
<!-- Generator: Adobe Illustrator 19.2.1, SVG Export Plug-In . SVG Version: 6.00 Build 0)  -->
<svg version="1.1" id="Layer_1" xmlns="http://www.w3.org/2000/svg" xmlns:xlink="http://www.w3.org/1999/xlink" x="0px" y="0px"
	 viewBox="0 0 100 100" style="enable-background:new 0 0 100 100;" xml:space="preserve">
<style type="text/css">
	.st0{fill:#297AB6;stroke:#FFFFFF;stroke-width:2.1262;stroke-miterlimit:10;}
	.st1{fill:none;stroke:#FFFFFF;stroke-width:1.0631;stroke-miterlimit:10;}
	.st2{fill:none;stroke:#FFFFFF;stroke-width:3.1477;stroke-linecap:round;stroke-linejoin:round;stroke-dasharray:0,16.9537;}
	.st3{fill:none;stroke:#FFFFFF;stroke-width:1.0631;stroke-linecap:round;stroke-linejoin:round;stroke-miterlimit:10;}
	.st4{fill:#FFFFFF;stroke:#FFFFFF;stroke-width:1.3307;stroke-miterlimit:10;}
</style>
<g>
	<g>
		<path class="st0" d="M82.4,27.9c6.4,7.5,10.2,17.2,10.2,27.9C92.6,79.7,73.3,99,49.4,99S6.1,79.7,6.1,55.8
			c0-22,16.5-40.2,37.7-42.9l0-4.8h-3.4c-0.7,0-1.3-0.6-1.3-1.3V3.4c0-0.7,0.6-1.3,1.3-1.3h17.9c0.7,0,1.3,0.6,1.3,1.3v3.4
			c0,0.7-0.6,1.3-1.3,1.3h-3.4l0,4.8c7.8,1,14.8,3.9,20.7,8.5l0.2,0.1l3.6-3.6L78,16.5c-0.6-0.6-0.6-1.5,0-2.1l2.3-2.1
			c0.6-0.6,1.5-0.6,2.1,0l9.2,9.2c0.6,0.6,0.6,1.5,0,2.1l-2.3,2.1c-0.6,0.6-1.5,0.6-2.1,0l-1.4-1.4L82.4,27.9L82.4,27.9z"/>
		<circle class="st1" cx="49.4" cy="55.8" r="37.5"/>
		<g>
			<circle class="st2" cx="49.7" cy="55.8" r="32.4"/>
		</g>
	</g>
	<line class="st3" x1="49.4" y1="55.8" x2="72.8" y2="41.8"/>
	<circle class="st4" cx="49.4" cy="55.8" r="3.5"/>
</g>
</svg>
