<svg id="Layer_1" data-name="Layer 1" xmlns="http://www.w3.org/2000/svg" xmlns:xlink="http://www.w3.org/1999/xlink" viewBox="0 0 450 253"><defs><style>.cls-1{fill:none;}.cls-2{fill:#fff;}.cls-3{font-size:14.8px;fill:#2f333c;font-family:Lato;font-weight:700;}.cls-4{fill:#333;}.cls-5{fill:url(#radial-gradient);}.cls-6{clip-path:url(#clip-path);}.cls-7{fill:url(#linear-gradient);}.cls-8{fill:url(#radial-gradient-2);}.cls-9{fill:#077bb4;}.cls-10{fill:#4cb75c;}</style><radialGradient id="radial-gradient" cx="119.29" cy="104.75" r="0.46" gradientUnits="userSpaceOnUse"><stop offset="0" stop-color="#fff"/><stop offset="1" stop-color="#aad7a3"/></radialGradient><clipPath id="clip-path" transform="translate(-0.15 -1)"><path class="cls-1" d="M96.61,87.65a83.89,83.89,0,0,0,16.83-5.55c2.4-1.2,9.26-5.13,11.77-5.25,0.71,0,1.54-.11,2.66-0.08s6.07,1.95,6.75,2.92c-7.65,0-11.36,6.78-11.39,11.62a10.8,10.8,0,0,0,11.32,10.83c8.62,0,11.13-7.91,11.21-10.61s-0.11-4.5-2.66-7.87c3.82,2,11.43,3.56,13.34,4-0.11,9.41-.86,23.16-10.61,38.72,0-5.17,0-22.75,0-22.75l-22.83,0-0.08,32s14.13,0,15.26-.08c-4.09,4.2-8.73,7.65-11.54,8.92C115.09,139.22,96.27,121,96.61,87.65Z"/></clipPath><linearGradient id="linear-gradient" x1="126.82" y1="104.92" x2="132.52" y2="137.26" gradientUnits="userSpaceOnUse"><stop offset="0" stop-color="#9ad1a4"/><stop offset="0.15" stop-color="#8ac794"/><stop offset="0.72" stop-color="#53a15a"/><stop offset="1" stop-color="#3e9344"/></linearGradient><radialGradient id="radial-gradient-2" cx="110.89" cy="92.98" r="48.69" gradientUnits="userSpaceOnUse"><stop offset="0" stop-color="#fff"/><stop offset="0.03" stop-color="#fcfdfb"/><stop offset="0.06" stop-color="#f3f9ee"/><stop offset="0.09" stop-color="#e3f0d9"/><stop offset="0.1" stop-color="#d7eac8"/><stop offset="0.13" stop-color="#d1e7c3"/><stop offset="0.22" stop-color="#bfdfb2"/><stop offset="0.5" stop-color="#6abb79"/><stop offset="0.82" stop-color="#449a53"/><stop offset="1" stop-color="#358d43"/></radialGradient></defs><title>iguard-video</title><rect class="cls-2" width="450" height="253"/><text class="cls-3" transform="translate(164.05 210.36)">SEE <tspan x="28.81" y="0">i</tspan><tspan x="32.34" y="0">G</tspan><tspan x="43.12" y="0">U</tspan><tspan x="53.81" y="0">ARD IN</tspan><tspan x="103.95" y="0"> </tspan><tspan x="107.14" y="0">A</tspan><tspan x="117" y="0">CTION</tspan></text><circle class="cls-4" cx="134.11" cy="204.55" r="16.67"/><polygon class="cls-2" points="129.72 196.18 141.83 204.55 129.72 212.91 129.72 196.18"/><circle class="cls-5" cx="119.29" cy="104.75" r="0.46"/><g class="cls-6"><circle class="cls-7" cx="129.67" cy="121.09" r="16.42"/></g><g class="cls-6"><polygon class="cls-8" points="156.21 144.82 66.03 144.82 65.58 41.14 155.99 41.37 156.21 144.82"/></g><path class="cls-9" d="M195.83,96.74c-5.06-4.5-7.36-6.58-13.16-6.58-8.32,0-14.56,7.59-14.56,15.76,0,8.53,6.24,15.84,14.63,15.84,7.87,0,13.94-5.62,13.94-12.58H182.83v-6.79h20.91v4.54c0,14.18-11.12,21.62-21,21.62-11.71,0-21.65-10-21.65-22.62S171,83.3,182.73,83.3c6.92,0,11.6,2.06,17.6,8.38Z" transform="translate(-0.15 -1)"/><path class="cls-9" d="M233.59,97.32v17.25c0,7.76-5.27,14-12.28,14-7.77,0-13-6.13-13-14V97.32H215v17.25c0,4.48,2.32,7.41,6.09,7.41,3,0,5.9-2.87,5.9-7.41V97.32h6.56Z" transform="translate(-0.15 -1)"/><path class="cls-9" d="M260.52,128V110.94c-0.17-5.26-3.49-7.62-8.06-7.62-5.25,0-8.34,4.5-8.34,9.59,0,4.74,3.28,8.92,8.38,8.92,3.37,0,5.93-2.69,7.51-6l0.06,9.47c-2.1,1.6-4.43,3.18-8.08,3.18-8.76,0-14.44-7.22-14.44-16.05,0-8.44,5.29-15.85,15.16-15.85,8.87,0,14.5,6.3,14.5,14.81V128h-6.68Z" transform="translate(-0.15 -1)"/><path class="cls-9" d="M284.17,96.57h3.05s0,5.15,0,6.63c-7.14,0-8.64,3.79-8.64,10.57v14.1h-6.7V97.25h6.46v1.87S281.29,96.57,284.17,96.57Z" transform="translate(-0.15 -1)"/><path class="cls-9" d="M317.88,83.87v28c0,9.73-6.25,16.62-14.69,16.62-9.35,0-15-8-15-16.72,0-8.92,6.91-15.22,14.28-15.22a16.24,16.24,0,0,1,8.21,2.32l0,8.36c-1.46-2.42-5.29-4-7.65-4-5,0-8.21,3.79-8.21,9.07s3,9.48,8.25,9.48c4.46,0,8.06-3.49,8.06-10.57l0-27.4h6.73Z" transform="translate(-0.15 -1)"/><path class="cls-9" d="M201.75,157.91a3.9,3.9,0,0,0-2.61-1.12,2.9,2.9,0,1,0,0,5.78,2.74,2.74,0,0,0,3-2.43h-2.82v-0.93h4v0.63a3.85,3.85,0,0,1-4.11,3.65,3.84,3.84,0,1,1,0-7.64,4.44,4.44,0,0,1,3.34,1.33Z" transform="translate(-0.15 -1)"/><path class="cls-9" d="M208.84,158.25v3a2.33,2.33,0,0,1-4.66,0v-3h1v3a1.33,1.33,0,1,0,2.66,0v-3h1Z" transform="translate(-0.15 -1)"/><path class="cls-9" d="M214.19,163.38v-2.89a1.54,1.54,0,0,0-1.72-1.45,1.78,1.78,0,1,0,1.32,2.84V163a2.19,2.19,0,0,1-1.43.49,2.61,2.61,0,0,1-2.6-2.73,2.55,2.55,0,0,1,2.73-2.62,2.39,2.39,0,0,1,2.66,2.44v2.8h-1Z" transform="translate(-0.15 -1)"/><path class="cls-9" d="M216.5,158.27h1v0.6h0a1.7,1.7,0,0,1,1.55-.71h0.24v0.91h-0.15c-1,0-1.61.56-1.61,2v2.43h-1v-5.21Z" transform="translate(-0.15 -1)"/><path class="cls-9" d="M225.11,155.91v4.84a2.66,2.66,0,0,1-2.7,2.87,2.7,2.7,0,0,1-2.77-2.84,2.6,2.6,0,0,1,2.58-2.58,3.08,3.08,0,0,1,1.52.37v1a2.72,2.72,0,0,0-1.35-.46,1.68,1.68,0,0,0-1.77,1.79,1.73,1.73,0,0,0,1.79,1.81c0.94,0,1.72-.69,1.72-2.13v-4.67h1Z" transform="translate(-0.15 -1)"/><path class="cls-9" d="M227.55,156.57a0.58,0.58,0,1,1-.63.58A0.59,0.59,0,0,1,227.55,156.57ZM227,163.51V158.3h1v5.21h-1Z" transform="translate(-0.15 -1)"/><path class="cls-9" d="M229.74,163.37v-3a2.45,2.45,0,0,1,4.89,0v3h-1v-3a1.4,1.4,0,0,0-2.79,0v3h-1Z" transform="translate(-0.15 -1)"/><path class="cls-9" d="M239.52,163.09a3.3,3.3,0,0,1-1.29.34,2.63,2.63,0,1,1,0-5.23,2.57,2.57,0,0,1,2.7,2.49v2.24a2.62,2.62,0,0,1-2.88,2.78,6.21,6.21,0,0,1-1.81-.29l0.24-.84a6.31,6.31,0,0,0,1.52.25,1.64,1.64,0,0,0,1.91-1.59v-2.34a1.77,1.77,0,1,0-3.53,0,1.68,1.68,0,0,0,1.84,1.62,2.79,2.79,0,0,0,1.28-.41v1Z" transform="translate(-0.15 -1)"/><path class="cls-9" d="M250.63,156.93h-0.76a3,3,0,0,0-3.31,2.84,2.82,2.82,0,0,0,2.88,2.85h1.19v1h-1.19a3.84,3.84,0,0,1-4.05-3.8,4.09,4.09,0,0,1,4.36-3.8h0.88v1Z" transform="translate(-0.15 -1)"/><path class="cls-9" d="M256.52,158.27v3a2.45,2.45,0,0,1-4.89,0v-3h1v3a1.4,1.4,0,0,0,2.79,0v-3h1Z" transform="translate(-0.15 -1)"/><path class="cls-9" d="M257.23,162.55h2.93c0.49,0,.68-0.17.68-0.5,0-1-3.61-.59-3.61-2.39,0-.92.7-1.41,2-1.41h2.47v0.91H259c-0.51,0-.67.13-0.68,0.46,0,0.9,3.61.52,3.61,2.39a1.51,1.51,0,0,1-1.78,1.45h-2.93v-0.91Z" transform="translate(-0.15 -1)"/><path class="cls-9" d="M266.16,159.27h-2.05V162c0,0.49.25,0.65,0.79,0.65h1.26v0.91h-1.41a1.56,1.56,0,0,1-1.69-1.68v-4.83h1v1.3h2.05v0.91Z" transform="translate(-0.15 -1)"/><path class="cls-9" d="M269.33,158.14a2.72,2.72,0,1,1-2.85,2.71A2.75,2.75,0,0,1,269.33,158.14Zm0,4.52a1.8,1.8,0,1,0-1.8-1.8A1.73,1.73,0,0,0,269.33,162.65Z" transform="translate(-0.15 -1)"/><path class="cls-9" d="M273.23,163.54V160a1.91,1.91,0,0,1,2.05-1.78,2.08,2.08,0,0,1,1.67.74,2.08,2.08,0,0,1,1.67-.74,1.91,1.91,0,0,1,2.05,1.78v3.54h-1v-3.32a1,1,0,0,0-1-1.09,1,1,0,0,0-1.12,1.24v3.17h-1v-3.17a1,1,0,0,0-1.12-1.24,1,1,0,0,0-1,1.09v3.32h-1Z" transform="translate(-0.15 -1)"/><path class="cls-9" d="M283.34,161.71l-0.42-.76,2.73-1.43a1.58,1.58,0,0,0-1.26-.5,1.8,1.8,0,1,0,1.86,2l1,0.12a2.73,2.73,0,0,1-2.88,2.42,2.72,2.72,0,1,1,0-5.43,2.84,2.84,0,0,1,2.67,1.65Z" transform="translate(-0.15 -1)"/><path class="cls-9" d="M288,158.33h1v0.6h0a1.7,1.7,0,0,1,1.55-.71h0.24v0.91h-0.15c-1,0-1.61.56-1.61,2v2.43h-1v-5.21Z" transform="translate(-0.15 -1)"/><path class="cls-9" d="M294.53,155.91h5.25v1h-2.06v6.64H296.6v-6.64h-2.06v-1Z" transform="translate(-0.15 -1)"/><path class="cls-9" d="M300.17,158.3h1v0.6h0a1.7,1.7,0,0,1,1.55-.71H303v0.91h-0.15c-1,0-1.61.56-1.61,2v2.43h-1V158.3Z" transform="translate(-0.15 -1)"/><path class="cls-9" d="M308.61,158.27v3a2.45,2.45,0,0,1-4.89,0v-3h1v3a1.4,1.4,0,0,0,2.79,0v-3h1Z" transform="translate(-0.15 -1)"/><path class="cls-9" d="M309.31,162.6h2.93c0.49,0,.68-0.17.68-0.5,0-1-3.61-.59-3.61-2.39,0-.92.7-1.41,2-1.41h2.47v0.91h-2.65c-0.51,0-.67.13-0.68,0.46,0,0.9,3.61.52,3.61,2.39a1.51,1.51,0,0,1-1.78,1.45h-2.93V162.6Z" transform="translate(-0.15 -1)"/><path class="cls-9" d="M318.3,159.21h-2.05V162c0,0.49.25,0.65,0.79,0.65h1.26v0.91h-1.41a1.56,1.56,0,0,1-1.69-1.68V157h1v1.3h2.05v0.91Z" transform="translate(-0.15 -1)"/><circle class="cls-9" cx="197.22" cy="140.85" r="2.7"/><circle class="cls-9" cx="204.34" cy="140.85" r="2.7"/><circle class="cls-9" cx="211.09" cy="140.85" r="2.7"/><circle class="cls-9" cx="218.06" cy="140.85" r="2.7"/><circle class="cls-9" cx="294.97" cy="140.85" r="2.7"/><circle class="cls-9" cx="294.97" cy="140.85" r="2.7"/><circle class="cls-9" cx="302.02" cy="140.85" r="2.7"/><circle class="cls-9" cx="308.99" cy="140.85" r="2.7"/><circle class="cls-9" cx="316.11" cy="140.92" r="2.7"/><circle class="cls-10" cx="229.68" cy="140.85" r="2.7"/><circle class="cls-10" cx="236.8" cy="140.77" r="2.7"/><circle class="cls-10" cx="243.77" cy="140.77" r="2.7"/><circle class="cls-10" cx="250.82" cy="140.77" r="2.7"/><circle class="cls-10" cx="262.51" cy="140.77" r="2.7"/><circle class="cls-10" cx="269.48" cy="140.77" r="2.7"/><circle class="cls-10" cx="276.31" cy="140.77" r="2.7"/><circle class="cls-10" cx="283.35" cy="140.77" r="2.7"/><path class="cls-9" d="M161.07,65.46l165.42,0.09c4.84,0,10.63,3.88,10.63,9.26V164h-1.69V74.85c0-3.47-4.33-7.74-9.13-7.74l-165.25,0Z" transform="translate(-0.15 -1)"/></svg>