<svg xmlns="http://www.w3.org/2000/svg" xmlns:xlink="http://www.w3.org/1999/xlink" viewBox="0 0 974.55 476.43"><defs><style>.cls-1,.cls-22,.cls-23,.cls-28,.cls-29,.cls-33,.cls-34,.cls-38,.cls-39,.cls-4,.cls-40,.cls-41,.cls-42,.cls-43,.cls-44,.cls-49,.cls-50,.cls-51,.cls-52,.cls-53,.cls-54,.cls-55,.cls-59,.cls-67,.cls-68,.cls-69{fill:none;}.cls-2{isolation:isolate;}.cls-3{fill:#f2f2f2;}.cls-4,.cls-42,.cls-43,.cls-44,.cls-53,.cls-54,.cls-59{stroke:#ec2227;}.cls-22,.cls-23,.cls-4{stroke-miterlimit:10;}.cls-4{stroke-width:1.73px;stroke-dasharray:3.38 2.53;}.cls-47,.cls-5{fill:#ec2227;}.cls-48,.cls-6,.cls-64,.cls-65{fill:#fff;}.cls-7{fill:#424143;}.cls-8{fill:#3db54a;}.cls-9{fill:#231f20;}.cls-10,.cls-71{fill:#6e6f72;}.cls-11,.cls-45,.cls-46,.cls-56,.cls-66{fill:#39a648;}.cls-11,.cls-18,.cls-70{opacity:0.2;}.cls-12{clip-path:url(#clip-path);}.cls-13{fill:#372a23;}.cls-14{fill:#4e4e4e;}.cls-15{fill:#88c87b;}.cls-16{fill:#ecbf88;}.cls-17{fill:#f3d49e;}.cls-18{mix-blend-mode:overlay;}.cls-19{clip-path:url(#clip-path-2);}.cls-20{fill:#a8aaad;}.cls-21,.cls-25,.cls-26,.cls-32{fill:#595a5c;}.cls-22{stroke:#a8aaad;}.cls-22,.cls-23{stroke-width:0.87px;}.cls-23{stroke:#595a5c;}.cls-24,.cls-31{fill:#e7e7e7;}.cls-25,.cls-48{font-size:9.62px;}.cls-25,.cls-26,.cls-32,.cls-45,.cls-46,.cls-47,.cls-48,.cls-64,.cls-66,.cls-71{font-family:Lato;}.cls-25,.cls-26,.cls-32,.cls-48,.cls-64,.cls-66{font-weight:700;}.cls-26{font-size:12.14px;}.cls-27{letter-spacing:-1px;}.cls-28,.cls-29,.cls-33,.cls-34{stroke:#b4b4b4;}.cls-28,.cls-29,.cls-33,.cls-34,.cls-38,.cls-39,.cls-40,.cls-41,.cls-42,.cls-43,.cls-44,.cls-49,.cls-50,.cls-51,.cls-52,.cls-53,.cls-54,.cls-55,.cls-59,.cls-67,.cls-68,.cls-69{stroke-linecap:round;stroke-linejoin:round;}.cls-28,.cls-29,.cls-33,.cls-34,.cls-39,.cls-40,.cls-41,.cls-42,.cls-43,.cls-44,.cls-49,.cls-50,.cls-51,.cls-52,.cls-53,.cls-54,.cls-55,.cls-59,.cls-67,.cls-68{stroke-width:2.6px;}.cls-29{stroke-dasharray:0 5.51;}.cls-30,.cls-31{mix-blend-mode:multiply;}.cls-32{font-size:9.96px;}.cls-33{stroke-dasharray:0 6.38;}.cls-34{stroke-dasharray:0 6.04;}.cls-35{fill:#bdbec0;}.cls-36{fill:#939598;}.cls-37{fill:#2075bc;}.cls-38{stroke:#fff;stroke-width:1.53px;}.cls-39,.cls-40,.cls-41,.cls-55,.cls-67,.cls-68,.cls-69{stroke:#39a648;}.cls-40{stroke-dasharray:0 5.97;}.cls-41,.cls-43{stroke-dasharray:0 4.24;}.cls-44{stroke-dasharray:0 6.67;}.cls-45,.cls-47,.cls-71{font-size:8.67px;}.cls-46{font-size:7.81px;}.cls-49,.cls-50,.cls-51,.cls-52{stroke:#037ab3;}.cls-50{stroke-dasharray:0 5.01;}.cls-51{stroke-dasharray:0 5.66;}.cls-52,.cls-55,.cls-59,.cls-69{stroke-dasharray:0 5.98;}.cls-53{stroke-dasharray:0 5.95;}.cls-54{stroke-dasharray:0 3.94;}.cls-57{fill:#b4b4b4;}.cls-58,.cls-70{fill:#037ab3;}.cls-60{fill:#414142;}.cls-61{fill:#d1d2d3;}.cls-62{fill:#929497;}.cls-63{fill:#bbbdbf;}.cls-64{font-size:3.84px;}.cls-65{opacity:0.5;}.cls-66{font-size:2.63px;}.cls-67{stroke-dasharray:0 5.76;}.cls-68{stroke-dasharray:0 6.05;}.cls-69{stroke-width:2.99px;}.cls-72{fill:url(#radial-gradient);}.cls-73{clip-path:url(#clip-path-3);}.cls-74{fill:url(#linear-gradient);}.cls-75{fill:url(#radial-gradient-2);}.cls-76{fill:#077bb4;}.cls-77{fill:#4cb75c;}</style><clipPath id="clip-path" transform="translate(0.36 4)"><path class="cls-1" d="M748.68,275.2a50.8,50.8,0,1,1,38.76-48.86,50.9,50.9,0,0,1-38.76,48.86"/></clipPath><clipPath id="clip-path-2" transform="translate(0.36 4)"><rect class="cls-1" x="677.8" y="168.59" width="58.79" height="124.67"/></clipPath><radialGradient id="radial-gradient" cx="416.68" cy="43.55" r="0.32" gradientUnits="userSpaceOnUse"><stop offset="0" stop-color="#fff"/><stop offset="1" stop-color="#aad7a3"/></radialGradient><clipPath id="clip-path-3" transform="translate(0.36 4)"><path class="cls-1" d="M400.7,27.16a57.44,57.44,0,0,0,11.52-3.8c1.64-.82,6.34-3.52,8.06-3.59,0.49,0,1.05-.08,1.82-0.05s4.16,1.33,4.62,2c-5.24,0-7.78,4.65-7.8,8a7.4,7.4,0,0,0,7.75,7.42c5.9,0,7.62-5.42,7.67-7.26a7.12,7.12,0,0,0-1.82-5.39c2.62,1.39,7.83,2.44,9.14,2.77-0.08,6.44-.59,15.86-7.26,26.51,0-3.54,0-15.58,0-15.58l-15.63,0-0.05,21.89s9.68,0,10.45-.05a31.21,31.21,0,0,1-7.9,6.11C413.35,62.47,400.47,50,400.7,27.16Z"/></clipPath><linearGradient id="linear-gradient" x1="421.84" y1="43.67" x2="425.74" y2="65.81" gradientUnits="userSpaceOnUse"><stop offset="0" stop-color="#9ad1a4"/><stop offset="0.15" stop-color="#8ac794"/><stop offset="0.72" stop-color="#53a15a"/><stop offset="1" stop-color="#3e9344"/></linearGradient><radialGradient id="radial-gradient-2" cx="410.93" cy="35.49" r="33.34" gradientUnits="userSpaceOnUse"><stop offset="0" stop-color="#fff"/><stop offset="0.03" stop-color="#fcfdfb"/><stop offset="0.06" stop-color="#f3f9ee"/><stop offset="0.09" stop-color="#e3f0d9"/><stop offset="0.1" stop-color="#d7eac8"/><stop offset="0.13" stop-color="#d1e7c3"/><stop offset="0.22" stop-color="#bfdfb2"/><stop offset="0.5" stop-color="#6abb79"/><stop offset="0.82" stop-color="#449a53"/><stop offset="1" stop-color="#358d43"/></radialGradient></defs><title>iguard-diagram</title><g class="cls-2"><g id="Layer_1" data-name="Layer 1"><rect class="cls-3" x="709.98" y="338.82" width="229.41" height="54.07"/><path class="cls-4" d="M330,400.77H611.42c20.06,0,36.33-18,36.33-40.24V144.17c0-18.27-13.37-33.08-29.86-33.08H30.37c-16.49,0-29.86,14.81-29.86,33.08V367.69c0,18.27,13.37,33.08,29.86,33.08H312.81" transform="translate(0.36 4)"/><rect class="cls-5" x="242.04" y="97.86" width="164" height="37.13" rx="6.23" ry="6.23"/><path class="cls-6" d="M399.46,96a4.06,4.06,0,0,1,4.06,4.06v24.68a4.06,4.06,0,0,1-4.06,4.06H247.91a4.06,4.06,0,0,1-4.06-4.06V100.09A4.06,4.06,0,0,1,247.91,96H399.46m0-4.34H247.91a8.4,8.4,0,0,0-8.39,8.39v24.68a8.4,8.4,0,0,0,8.39,8.39H399.46a8.4,8.4,0,0,0,8.39-8.39V100.09a8.4,8.4,0,0,0-8.39-8.39h0Z" transform="translate(0.36 4)"/><rect class="cls-7" x="221.13" y="440.55" width="61.3" height="16.61" rx="1.32" ry="1.32"/><rect class="cls-8" x="269.18" y="444.72" width="1.85" height="1.85" rx="0.92" ry="0.92"/><rect class="cls-8" x="272.42" y="444.72" width="1.85" height="1.85" rx="0.92" ry="0.92"/><rect class="cls-8" x="275.65" y="444.72" width="1.85" height="1.85" rx="0.92" ry="0.92"/><rect class="cls-7" x="221.13" y="459.82" width="61.3" height="16.61" rx="1.32" ry="1.32"/><rect class="cls-8" x="269.18" y="463.99" width="1.85" height="1.85" rx="0.92" ry="0.92"/><rect class="cls-8" x="272.42" y="463.99" width="1.85" height="1.85" rx="0.92" ry="0.92"/><rect class="cls-8" x="275.65" y="463.99" width="1.85" height="1.85" rx="0.92" ry="0.92"/><rect class="cls-9" x="226.51" y="457.16" width="5.59" height="2.66"/><rect class="cls-9" x="271.47" y="457.16" width="5.59" height="2.66"/><rect class="cls-7" x="221.13" y="421.27" width="61.3" height="16.61" rx="1.32" ry="1.32"/><rect class="cls-8" x="269.18" y="425.45" width="1.85" height="1.85" rx="0.92" ry="0.92"/><rect class="cls-8" x="272.42" y="425.45" width="1.85" height="1.85" rx="0.92" ry="0.92"/><rect class="cls-8" x="275.65" y="425.45" width="1.85" height="1.85" rx="0.92" ry="0.92"/><rect class="cls-9" x="226.51" y="437.88" width="5.59" height="2.66"/><rect class="cls-9" x="271.47" y="437.88" width="5.59" height="2.66"/><rect class="cls-10" x="225.88" y="426.15" width="12.55" height="6.86" rx="0.35" ry="0.35"/><rect class="cls-10" x="225.88" y="445.42" width="12.55" height="6.86" rx="0.83" ry="0.83"/><rect class="cls-10" x="225.88" y="464.69" width="12.55" height="6.86" rx="0.83" ry="0.83"/><circle class="cls-11" cx="736.64" cy="225.83" r="50.8" transform="translate(503.9 964.21) rotate(-89.43)"/><g class="cls-12"><path class="cls-13" d="M736.59,186.38c-21.63,0-28.15,36.33-28.15,51.46s2,17.31,2,17.31l26.12,3.44,26.12-3.44s2-2.17,2-17.31S758.21,186.38,736.59,186.38Z" transform="translate(0.36 4)"/><path class="cls-14" d="M763,254.56c-4.14-1.5-19.07-7.14-19.07-7.14H729.27s-14.93,5.64-19.07,7.14-6,3.08-6,9.16v20.36H769V263.72C769,257.64,767.12,256.06,763,254.56Z" transform="translate(0.36 4)"/><polygon class="cls-15" points="744.26 251.43 736.94 252.93 729.63 251.43 723.51 288.09 736.94 288.09 750.38 288.09 744.26 251.43"/><path class="cls-16" d="M736.59,234.57h-7.32v12.85s1.67,4.3,7.32,4.3,7.32-4.3,7.32-4.3V234.57h-7.32Z" transform="translate(0.36 4)"/><path class="cls-17" d="M750.38,203.09l-13.79-2.82-13.79,2.82L720.6,215v9.4c0,6.1,10.49,17.91,16,17.91s16-11.81,16-17.91V215Z" transform="translate(0.36 4)"/><path class="cls-13" d="M713.9,214.89s15.09,2.69,27-12.6c0,0,4.76,12.16,14.8,14.27l-2.91-14.27-11.45-9.6S724.12,184.94,713.9,214.89Z" transform="translate(0.36 4)"/><path class="cls-6" d="M754.3,214.77v-5.93c0-6.86-4.41-14.87-17.71-14.87s-17.71,8-17.71,14.87v5.93c-2.06,0-3.73,2.15-3.73,4.8s1.67,4.8,3.73,4.8h1.72V208.84c0-6.06,4-13.14,16-13.14s16,7.08,16,13.14v15.54c0,2.35-2.63,8.88-10.63,11.2a2.11,2.11,0,1,0,.2.88s0,0,0,0c8.35-2.37,11.3-9.07,11.3-12h0.86c2.06,0,3.73-2.15,3.73-4.8S756.36,214.77,754.3,214.77Z" transform="translate(0.36 4)"/><g class="cls-18"><g class="cls-19"><path class="cls-6" d="M763,254.58c0.57-1.31,1.71-5.37,1.71-16.74,0-15.13-6.52-51.46-28.15-51.46s-28.15,36.33-28.15,51.46c0,11.37,1.14,15.42,1.71,16.74-4.11,1.49-5.95,3.09-5.95,9.15v25.89H769V263.72C769,257.67,767.13,256.07,763,254.58Z" transform="translate(0.36 4)"/></g></g></g><rect class="cls-20" x="175.53" y="174.66" width="297.5" height="31.66" rx="2.17" ry="2.17"/><rect class="cls-7" x="315.15" y="174.66" width="98.68" height="31.66"/><path class="cls-21" d="M175.17,182.64v7.68A3.84,3.84,0,1,0,175.17,182.64Z" transform="translate(0.36 4)"/><rect class="cls-20" x="304.55" y="174.66" width="9.76" height="31.66"/><line class="cls-22" x1="314.3" y1="190.48" x2="413.83" y2="190.48"/><line class="cls-22" x1="364.07" y1="174.66" x2="364.07" y2="206.31"/><line class="cls-23" x1="413.83" y1="198.94" x2="473.03" y2="198.94"/><path class="cls-7" d="M426.2,187.77h3.25a3.47,3.47,0,0,1,3.47,3.47v7.7a0,0,0,0,1,0,0H422.72a0,0,0,0,1,0,0v-7.7A3.47,3.47,0,0,1,426.2,187.77Z"/><rect class="cls-24" x="424.6" y="191.86" width="6.51" height="3.04"/><path class="cls-7" d="M437.25,187.77h3.25a3.47,3.47,0,0,1,3.47,3.47v7.7a0,0,0,0,1,0,0H433.78a0,0,0,0,1,0,0v-7.7A3.47,3.47,0,0,1,437.25,187.77Z"/><rect class="cls-24" x="435.66" y="191.86" width="6.51" height="3.04"/><path class="cls-7" d="M419.33,187.77h0a1.52,1.52,0,0,1,1.52,1.52v9.65a0,0,0,0,1,0,0h-3a0,0,0,0,1,0,0v-9.65A1.52,1.52,0,0,1,419.33,187.77Z"/><path class="cls-7" d="M447.66,187.77h0a1.52,1.52,0,0,1,1.52,1.52v9.65a0,0,0,0,1,0,0h-3a0,0,0,0,1,0,0v-9.65A1.52,1.52,0,0,1,447.66,187.77Z"/><circle class="cls-21" cx="421.71" cy="202.27" r="1.4"/><circle class="cls-21" cx="429.71" cy="202.27" r="1.4"/><circle class="cls-21" cx="436.61" cy="202.27" r="1.4"/><circle class="cls-21" cx="443.43" cy="202.27" r="1.4"/><circle class="cls-21" cx="453.2" cy="202.27" r="1.4"/><circle class="cls-21" cx="463.45" cy="202.27" r="1.4"/><rect class="cls-21" x="466.31" y="188.53" width="6.72" height="8.46"/><rect class="cls-20" x="468.2" y="190.32" width="4.83" height="4.88"/><rect class="cls-21" x="456.44" y="174.66" width="12.14" height="10.1"/><rect class="cls-24" x="456.44" y="182.61" width="12.14" height="2.15"/><rect class="cls-24" x="463.78" y="180.73" width="2.53" height="1.88"/><rect class="cls-24" x="458.65" y="180.73" width="2.53" height="1.88"/><rect class="cls-21" x="311.14" y="179.64" width="4.01" height="8.24"/><rect class="cls-21" x="311.14" y="193.19" width="4.01" height="8.24"/><rect class="cls-7" x="188.1" y="174.66" width="116.44" height="31.66"/><circle class="cls-10" cx="181.8" cy="180.73" r="1.49"/><circle class="cls-10" cx="181.8" cy="198.94" r="1.49"/><rect class="cls-20" x="312.77" y="180.73" width="2.39" height="5.92"/><rect class="cls-20" x="312.77" y="194.36" width="2.39" height="5.92"/><text class="cls-25" transform="translate(276.65 161.49)">A<tspan x="6.62" y="0">C</tspan><tspan x="13.01" y="0">D </tspan><tspan x="22.06" y="0">P</tspan><tspan x="27.98" y="0">HON</tspan><tspan x="50.46" y="0">E </tspan><tspan x="57.82" y="0">S</tspan><tspan x="63.07" y="0">W</tspan><tspan x="73.1" y="0">I</tspan><tspan x="76.04" y="0">T</tspan><tspan x="81.6" y="0">C</tspan><tspan x="87.99" y="0">H</tspan></text><text class="cls-26" transform="translate(419.99 283.19)">I<tspan x="3.73" y="0">G</tspan><tspan x="12.51" y="0">U</tspan><tspan x="20.94" y="0">A</tspan><tspan x="29.49" y="0">R</tspan><tspan x="37.31" y="0">D </tspan><tspan x="48.73" y="0">A</tspan><tspan x="56.96" y="0">G</tspan><tspan x="65.78" y="0">EN</tspan><tspan x="81.67" y="0">T </tspan><tspan x="91.24" y="0">S</tspan><tspan x="97.79" y="0">E</tspan><tspan x="104.59" y="0">R</tspan><tspan x="112.11" y="0">V</tspan><tspan x="120.68" y="0">E</tspan><tspan x="127.48" y="0">R</tspan></text><text class="cls-26" transform="translate(100.68 283.19)">I<tspan x="3.73" y="0">G</tspan><tspan x="12.51" y="0">U</tspan><tspan x="20.94" y="0">A</tspan><tspan x="29.49" y="0">R</tspan><tspan x="37.31" y="0">D </tspan><tspan x="48.73" y="0">D</tspan><tspan class="cls-27" x="57.37" y="0">A</tspan><tspan class="cls-27" x="64.99" y="0">T</tspan><tspan x="71.2" y="0">A </tspan><tspan x="82.16" y="0">S</tspan><tspan x="88.71" y="0">E</tspan><tspan x="95.52" y="0">R</tspan><tspan x="103.04" y="0">V</tspan><tspan x="111.6" y="0">E</tspan><tspan x="118.4" y="0">R</tspan></text><text class="cls-25" transform="translate(159.57 444.72)">P<tspan x="5.5" y="0">A</tspan><tspan x="11.65" y="0">Y</tspan><tspan x="18.02" y="0">M</tspan><tspan x="27.05" y="0">ENT</tspan><tspan x="-0.56" y="11.54">G</tspan><tspan x="6.44" y="11.54">A</tspan><tspan x="12.6" y="11.54">T</tspan><tspan x="18.32" y="11.54">E</tspan><tspan x="24" y="11.54">W</tspan><tspan x="33.67" y="11.54">A</tspan><tspan x="39.82" y="11.54">Y</tspan></text><text class="cls-25" transform="translate(315.25 389.03)">A<tspan x="6.86" y="0">P</tspan><tspan x="12.73" y="0">I</tspan></text><text class="cls-25" transform="translate(357.21 248.56)">C<tspan x="6.67" y="0">T</tspan><tspan x="12.32" y="0">I INT</tspan><tspan x="33.21" y="0">E</tspan><tspan x="38.7" y="0">R</tspan><tspan x="45" y="0">F</tspan><tspan x="49.9" y="0">A</tspan><tspan x="56.52" y="0">C</tspan><tspan x="62.91" y="0">E</tspan></text><text class="cls-25" transform="translate(206.21 248.56)">D<tspan x="7" y="0">T</tspan><tspan x="12.72" y="0">M</tspan><tspan x="21.75" y="0">F INT</tspan><tspan x="45.02" y="0">E</tspan><tspan x="50.51" y="0">R</tspan><tspan x="56.81" y="0">F</tspan><tspan x="61.71" y="0">A</tspan><tspan x="68.33" y="0">C</tspan><tspan x="74.73" y="0">E</tspan></text><line class="cls-28" x1="129.7" y1="56.6" x2="129.7" y2="56.6"/><line class="cls-29" x1="135.21" y1="56.6" x2="154.5" y2="56.6"/><line class="cls-28" x1="157.26" y1="56.6" x2="157.26" y2="56.6"/><g class="cls-30"><path class="cls-3" d="M278.86,35a30.18,30.18,0,0,0-55.5-7.1,22.61,22.61,0,0,0-24.47,12.93,16.26,16.26,0,1,0-5.07,32v0h80.12A19.24,19.24,0,0,0,278.86,35Z" transform="translate(0.36 4)"/><path class="cls-31" d="M273.94,68.52H193.82v0A16.26,16.26,0,0,1,178.7,54.42,16.24,16.24,0,0,0,193.82,72.8v0h80.12a19.22,19.22,0,0,0,19.11-21.4A19.24,19.24,0,0,1,273.94,68.52Z" transform="translate(0.36 4)"/></g><text class="cls-32" transform="translate(226.68 55.44)">P<tspan x="6.25" y="0">S</tspan><tspan x="11.72" y="0">T</tspan><tspan x="17.64" y="0">N</tspan></text><line class="cls-28" x1="326.69" y1="79.03" x2="326.69" y2="79.03"/><line class="cls-33" x1="326.69" y1="72.66" x2="326.69" y2="63.09"/><line class="cls-28" x1="326.69" y1="59.9" x2="326.69" y2="59.9"/><path class="cls-34" d="M320.3,55.74c-4.82,0-11.34.07-15.1,0.12" transform="translate(0.36 4)"/><line class="cls-28" x1="302.54" y1="59.9" x2="302.54" y2="59.9"/><path class="cls-3" d="M598.63,339.74H502L492.2,330l-9.76,9.76H391a9,9,0,0,0-9,9v10.82a9,9,0,0,0,9,9H598.63a9,9,0,0,0,9-9V348.79A9,9,0,0,0,598.63,339.74Z" transform="translate(0.36 4)"/><path class="cls-3" d="M724.09,149.8h79.32l9.76,9.76,9.76-9.76H897a9,9,0,0,0,9-9V121.26a9,9,0,0,0-9-9H724.09a9,9,0,0,0-9,9v19.49A9,9,0,0,0,724.09,149.8Z" transform="translate(0.36 4)"/><rect class="cls-20" x="30.66" y="295.17" width="265.7" height="25.15"/><path class="cls-21" d="M285.86,295.17h15.85a1.82,1.82,0,0,1,1.82,1.82V318.5a1.82,1.82,0,0,1-1.82,1.82H285.86a0,0,0,0,1,0,0V295.17A0,0,0,0,1,285.86,295.17Z"/><path class="cls-21" d="M29,295.17H43.62a0,0,0,0,1,0,0v25.15a0,0,0,0,1,0,0H29a1.82,1.82,0,0,1-1.82-1.82V297A1.82,1.82,0,0,1,29,295.17Z"/><circle class="cls-10" cx="33.28" cy="307.75" r="3.9"/><circle class="cls-10" cx="297.03" cy="307.75" r="3.9"/><path class="cls-10" d="M43.62,302H51.5A4.55,4.55,0,0,1,56,306.51v2.19a4.55,4.55,0,0,1-4.55,4.55H43.62a0,0,0,0,1,0,0V302A0,0,0,0,1,43.62,302Z"/><rect class="cls-35" x="63.54" y="295.17" width="32.58" height="18.07"/><path class="cls-10" d="M39.36,303.6c0-6.87,1.75-12.43,3.9-12.43V316C41.1,316,39.36,310.47,39.36,303.6Z" transform="translate(0.36 4)"/><circle class="cls-36" cx="50.41" cy="307.6" r="3.76"/><rect class="cls-21" x="67.47" y="300.81" width="24.72" height="5.93" rx="2.96" ry="2.96"/><rect class="cls-37" x="77.87" y="302.27" width="12.51" height="3" rx="1.5" ry="1.5"/><rect class="cls-24" x="258.14" y="306.74" width="21.39" height="6.51" rx="3.25" ry="3.25"/><rect class="cls-21" x="264.57" y="309.27" width="6.54" height="1.99" rx="0.99" ry="0.99"/><circle class="cls-21" cx="100.68" cy="299.18" r="1.19"/><circle class="cls-21" cx="109.81" cy="299.18" r="1.19"/><circle class="cls-21" cx="114.37" cy="299.18" r="1.19"/><circle class="cls-21" cx="123.49" cy="299.18" r="1.19"/><circle class="cls-21" cx="128.06" cy="299.18" r="1.19"/><circle class="cls-21" cx="132.62" cy="299.18" r="1.19"/><circle class="cls-21" cx="137.18" cy="299.18" r="1.19"/><circle class="cls-21" cx="141.74" cy="299.18" r="1.19"/><circle class="cls-21" cx="146.31" cy="299.18" r="1.19"/><circle class="cls-21" cx="150.87" cy="299.18" r="1.19"/><circle class="cls-21" cx="155.43" cy="299.18" r="1.19"/><circle class="cls-21" cx="118.93" cy="299.18" r="1.19"/><circle class="cls-21" cx="105.24" cy="299.18" r="1.19"/><circle class="cls-21" cx="100.68" cy="303.16" r="1.19"/><circle class="cls-21" cx="100.68" cy="307.75" r="1.19"/><circle class="cls-21" cx="109.81" cy="303.16" r="1.19"/><circle class="cls-21" cx="114.37" cy="303.16" r="1.19"/><circle class="cls-21" cx="123.49" cy="303.16" r="1.19"/><circle class="cls-21" cx="128.06" cy="303.16" r="1.19"/><circle class="cls-21" cx="132.62" cy="303.16" r="1.19"/><circle class="cls-21" cx="137.18" cy="303.16" r="1.19"/><circle class="cls-21" cx="141.74" cy="303.16" r="1.19"/><circle class="cls-21" cx="146.31" cy="303.16" r="1.19"/><circle class="cls-21" cx="150.87" cy="303.16" r="1.19"/><circle class="cls-21" cx="118.93" cy="303.16" r="1.19"/><circle class="cls-21" cx="105.24" cy="303.16" r="1.19"/><circle class="cls-21" cx="231.84" cy="299.18" r="1.19"/><circle class="cls-21" cx="222.72" cy="299.18" r="1.19"/><circle class="cls-21" cx="218.15" cy="299.18" r="1.19"/><circle class="cls-21" cx="209.03" cy="299.18" r="1.19"/><circle class="cls-21" cx="204.47" cy="299.18" r="1.19"/><circle class="cls-21" cx="199.9" cy="299.18" r="1.19"/><circle class="cls-21" cx="195.34" cy="299.18" r="1.19"/><circle class="cls-21" cx="190.78" cy="299.18" r="1.19"/><circle class="cls-21" cx="186.21" cy="299.18" r="1.19"/><circle class="cls-21" cx="181.65" cy="299.18" r="1.19"/><circle class="cls-21" cx="177.09" cy="299.18" r="1.19"/><circle class="cls-21" cx="213.59" cy="299.18" r="1.19"/><circle class="cls-21" cx="227.28" cy="299.18" r="1.19"/><circle class="cls-21" cx="231.84" cy="303.16" r="1.19"/><circle class="cls-21" cx="222.72" cy="303.16" r="1.19"/><circle class="cls-21" cx="218.15" cy="303.16" r="1.19"/><circle class="cls-21" cx="209.03" cy="303.16" r="1.19"/><circle class="cls-21" cx="204.47" cy="303.16" r="1.19"/><circle class="cls-21" cx="199.9" cy="303.16" r="1.19"/><circle class="cls-21" cx="195.34" cy="303.16" r="1.19"/><circle class="cls-21" cx="190.78" cy="303.16" r="1.19"/><circle class="cls-21" cx="186.21" cy="303.16" r="1.19"/><circle class="cls-21" cx="181.65" cy="303.16" r="1.19"/><circle class="cls-21" cx="213.59" cy="303.16" r="1.19"/><circle class="cls-21" cx="227.28" cy="303.16" r="1.19"/><circle class="cls-21" cx="282.15" cy="299.18" r="1.19"/><circle class="cls-21" cx="273.02" cy="299.18" r="1.19"/><circle class="cls-21" cx="268.46" cy="299.18" r="1.19"/><circle class="cls-21" cx="259.33" cy="299.18" r="1.19"/><circle class="cls-21" cx="254.77" cy="299.18" r="1.19"/><circle class="cls-21" cx="250.21" cy="299.18" r="1.19"/><circle class="cls-21" cx="245.65" cy="299.18" r="1.19"/><circle class="cls-21" cx="241.08" cy="299.18" r="1.19"/><circle class="cls-21" cx="236.52" cy="299.18" r="1.19"/><circle class="cls-21" cx="263.9" cy="299.18" r="1.19"/><circle class="cls-21" cx="277.59" cy="299.18" r="1.19"/><circle class="cls-21" cx="282.15" cy="303.16" r="1.19"/><circle class="cls-21" cx="273.02" cy="303.16" r="1.19"/><circle class="cls-21" cx="268.46" cy="303.16" r="1.19"/><circle class="cls-21" cx="259.33" cy="303.16" r="1.19"/><circle class="cls-21" cx="254.77" cy="303.16" r="1.19"/><circle class="cls-21" cx="250.21" cy="303.16" r="1.19"/><circle class="cls-21" cx="245.65" cy="303.16" r="1.19"/><circle class="cls-21" cx="241.08" cy="303.16" r="1.19"/><circle class="cls-21" cx="236.52" cy="303.16" r="1.19"/><circle class="cls-21" cx="263.9" cy="303.16" r="1.19"/><circle class="cls-21" cx="277.59" cy="303.16" r="1.19"/><circle class="cls-21" cx="231.84" cy="316.42" r="1.19"/><circle class="cls-21" cx="222.72" cy="316.42" r="1.19"/><circle class="cls-21" cx="218.15" cy="316.42" r="1.19"/><circle class="cls-21" cx="209.03" cy="316.42" r="1.19"/><circle class="cls-21" cx="204.47" cy="316.42" r="1.19"/><circle class="cls-21" cx="199.9" cy="316.42" r="1.19"/><circle class="cls-21" cx="195.34" cy="316.42" r="1.19"/><circle class="cls-21" cx="190.78" cy="316.42" r="1.19"/><circle class="cls-21" cx="186.21" cy="316.42" r="1.19"/><circle class="cls-21" cx="181.65" cy="316.42" r="1.19"/><circle class="cls-21" cx="177.09" cy="316.42" r="1.19"/><circle class="cls-21" cx="213.59" cy="316.42" r="1.19"/><circle class="cls-21" cx="227.28" cy="316.42" r="1.19"/><circle class="cls-21" cx="231.84" cy="312.45" r="1.19"/><circle class="cls-21" cx="222.72" cy="312.45" r="1.19"/><circle class="cls-21" cx="218.15" cy="312.45" r="1.19"/><circle class="cls-21" cx="209.03" cy="312.45" r="1.19"/><circle class="cls-21" cx="204.47" cy="312.45" r="1.19"/><circle class="cls-21" cx="199.9" cy="312.45" r="1.19"/><circle class="cls-21" cx="195.34" cy="312.45" r="1.19"/><circle class="cls-21" cx="190.78" cy="312.45" r="1.19"/><circle class="cls-21" cx="186.21" cy="312.45" r="1.19"/><circle class="cls-21" cx="181.65" cy="312.45" r="1.19"/><circle class="cls-21" cx="213.59" cy="312.45" r="1.19"/><circle class="cls-21" cx="227.28" cy="312.45" r="1.19"/><circle class="cls-21" cx="282.15" cy="316.42" r="1.19"/><circle class="cls-21" cx="273.02" cy="316.42" r="1.19"/><circle class="cls-21" cx="268.46" cy="316.42" r="1.19"/><circle class="cls-21" cx="259.33" cy="316.42" r="1.19"/><circle class="cls-21" cx="254.77" cy="316.42" r="1.19"/><circle class="cls-21" cx="250.21" cy="316.42" r="1.19"/><circle class="cls-21" cx="245.65" cy="316.42" r="1.19"/><circle class="cls-21" cx="241.08" cy="316.42" r="1.19"/><circle class="cls-21" cx="236.52" cy="316.42" r="1.19"/><circle class="cls-21" cx="263.9" cy="316.42" r="1.19"/><circle class="cls-21" cx="277.59" cy="316.42" r="1.19"/><circle class="cls-21" cx="282.15" cy="312.45" r="1.19"/><circle class="cls-21" cx="282.15" cy="307.75" r="1.19"/><circle class="cls-21" cx="254.77" cy="312.45" r="1.19"/><circle class="cls-21" cx="250.21" cy="312.45" r="1.19"/><circle class="cls-21" cx="245.65" cy="312.45" r="1.19"/><circle class="cls-21" cx="241.08" cy="312.45" r="1.19"/><circle class="cls-21" cx="236.52" cy="312.45" r="1.19"/><circle class="cls-21" cx="231.84" cy="307.75" r="1.19"/><circle class="cls-21" cx="254.77" cy="307.75" r="1.19"/><circle class="cls-21" cx="250.21" cy="307.75" r="1.19"/><circle class="cls-21" cx="245.65" cy="307.75" r="1.19"/><circle class="cls-21" cx="241.08" cy="307.75" r="1.19"/><circle class="cls-21" cx="236.52" cy="307.75" r="1.19"/><circle class="cls-21" cx="100.68" cy="316.42" r="1.19"/><circle class="cls-21" cx="109.81" cy="316.42" r="1.19"/><circle class="cls-21" cx="114.37" cy="316.42" r="1.19"/><circle class="cls-21" cx="123.49" cy="316.42" r="1.19"/><circle class="cls-21" cx="128.06" cy="316.42" r="1.19"/><circle class="cls-21" cx="132.62" cy="316.42" r="1.19"/><circle class="cls-21" cx="137.18" cy="316.42" r="1.19"/><circle class="cls-21" cx="141.74" cy="316.42" r="1.19"/><circle class="cls-21" cx="146.31" cy="316.42" r="1.19"/><circle class="cls-21" cx="150.87" cy="316.42" r="1.19"/><circle class="cls-21" cx="155.43" cy="316.42" r="1.19"/><circle class="cls-21" cx="118.93" cy="316.42" r="1.19"/><circle class="cls-21" cx="105.24" cy="316.42" r="1.19"/><circle class="cls-21" cx="50.49" cy="316.42" r="1.19"/><circle class="cls-21" cx="59.62" cy="316.42" r="1.19"/><circle class="cls-21" cx="64.18" cy="316.42" r="1.19"/><circle class="cls-21" cx="73.3" cy="316.42" r="1.19"/><circle class="cls-21" cx="77.87" cy="316.42" r="1.19"/><circle class="cls-21" cx="82.43" cy="316.42" r="1.19"/><circle class="cls-21" cx="86.99" cy="316.42" r="1.19"/><circle class="cls-21" cx="91.55" cy="316.42" r="1.19"/><circle class="cls-21" cx="96.12" cy="316.42" r="1.19"/><circle class="cls-21" cx="100.68" cy="316.42" r="1.19"/><circle class="cls-21" cx="68.74" cy="316.42" r="1.19"/><circle class="cls-21" cx="55.05" cy="316.42" r="1.19"/><circle class="cls-21" cx="50.49" cy="299.18" r="1.19"/><circle class="cls-21" cx="59.62" cy="299.18" r="1.19"/><circle class="cls-21" cx="55.05" cy="299.18" r="1.19"/><circle class="cls-21" cx="100.68" cy="312.45" r="1.19"/><circle class="cls-21" cx="59.62" cy="303.16" r="1.19"/><circle class="cls-21" cx="59.62" cy="307.75" r="1.19"/><circle class="cls-21" cx="59.62" cy="312.45" r="1.19"/><circle class="cls-21" cx="109.81" cy="312.45" r="1.19"/><circle class="cls-21" cx="114.37" cy="312.45" r="1.19"/><circle class="cls-21" cx="123.49" cy="312.45" r="1.19"/><circle class="cls-21" cx="128.06" cy="312.45" r="1.19"/><circle class="cls-21" cx="132.62" cy="312.45" r="1.19"/><circle class="cls-21" cx="137.18" cy="312.45" r="1.19"/><circle class="cls-21" cx="141.74" cy="312.45" r="1.19"/><circle class="cls-21" cx="146.31" cy="312.45" r="1.19"/><circle class="cls-21" cx="150.87" cy="312.45" r="1.19"/><circle class="cls-21" cx="118.93" cy="312.45" r="1.19"/><circle class="cls-21" cx="105.24" cy="312.45" r="1.19"/><circle class="cls-35" cx="166.2" cy="307.75" r="8.67"/><rect class="cls-10" x="285.86" y="295.17" width="3.27" height="25.15"/><rect class="cls-20" x="353.34" y="295.17" width="265.7" height="25.15"/><path class="cls-21" d="M608.54,295.17H624.4a1.82,1.82,0,0,1,1.82,1.82V318.5a1.82,1.82,0,0,1-1.82,1.82H608.54a0,0,0,0,1,0,0V295.17A0,0,0,0,1,608.54,295.17Z"/><path class="cls-21" d="M351.64,295.17H366.3a0,0,0,0,1,0,0v25.15a0,0,0,0,1,0,0H351.64a1.82,1.82,0,0,1-1.82-1.82V297A1.82,1.82,0,0,1,351.64,295.17Z"/><circle class="cls-10" cx="355.96" cy="307.75" r="3.9"/><circle class="cls-10" cx="619.71" cy="307.75" r="3.9"/><path class="cls-10" d="M366.3,302h7.89a4.55,4.55,0,0,1,4.55,4.55v2.19a4.55,4.55,0,0,1-4.55,4.55H366.3a0,0,0,0,1,0,0V302A0,0,0,0,1,366.3,302Z"/><rect class="cls-35" x="386.22" y="295.17" width="32.58" height="18.07"/><path class="cls-10" d="M362,303.6c0-6.87,1.75-12.43,3.9-12.43V316C363.78,316,362,310.47,362,303.6Z" transform="translate(0.36 4)"/><circle class="cls-36" cx="373.09" cy="307.6" r="3.76"/><rect class="cls-21" x="390.15" y="300.81" width="24.72" height="5.93" rx="2.96" ry="2.96"/><rect class="cls-37" x="400.55" y="302.27" width="12.51" height="3" rx="1.5" ry="1.5"/><rect class="cls-24" x="580.82" y="306.74" width="21.39" height="6.51" rx="3.25" ry="3.25"/><rect class="cls-21" x="587.25" y="309.27" width="6.54" height="1.99" rx="0.99" ry="0.99"/><circle class="cls-21" cx="423.36" cy="299.18" r="1.19"/><circle class="cls-21" cx="432.49" cy="299.18" r="1.19"/><circle class="cls-21" cx="437.05" cy="299.18" r="1.19"/><circle class="cls-21" cx="446.18" cy="299.18" r="1.19"/><circle class="cls-21" cx="450.74" cy="299.18" r="1.19"/><circle class="cls-21" cx="455.3" cy="299.18" r="1.19"/><circle class="cls-21" cx="459.86" cy="299.18" r="1.19"/><circle class="cls-21" cx="464.43" cy="299.18" r="1.19"/><circle class="cls-21" cx="468.99" cy="299.18" r="1.19"/><circle class="cls-21" cx="473.55" cy="299.18" r="1.19"/><circle class="cls-21" cx="478.11" cy="299.18" r="1.19"/><circle class="cls-21" cx="441.61" cy="299.18" r="1.19"/><circle class="cls-21" cx="427.92" cy="299.18" r="1.19"/><circle class="cls-21" cx="423.36" cy="303.16" r="1.19"/><circle class="cls-21" cx="423.36" cy="307.75" r="1.19"/><circle class="cls-21" cx="432.49" cy="303.16" r="1.19"/><circle class="cls-21" cx="437.05" cy="303.16" r="1.19"/><circle class="cls-21" cx="446.18" cy="303.16" r="1.19"/><circle class="cls-21" cx="450.74" cy="303.16" r="1.19"/><circle class="cls-21" cx="455.3" cy="303.16" r="1.19"/><circle class="cls-21" cx="459.86" cy="303.16" r="1.19"/><circle class="cls-21" cx="464.43" cy="303.16" r="1.19"/><circle class="cls-21" cx="468.99" cy="303.16" r="1.19"/><circle class="cls-21" cx="473.55" cy="303.16" r="1.19"/><circle class="cls-21" cx="441.61" cy="303.16" r="1.19"/><circle class="cls-21" cx="427.92" cy="303.16" r="1.19"/><circle class="cls-21" cx="554.52" cy="299.18" r="1.19"/><circle class="cls-21" cx="545.4" cy="299.18" r="1.19"/><circle class="cls-21" cx="540.84" cy="299.18" r="1.19"/><circle class="cls-21" cx="531.71" cy="299.18" r="1.19"/><circle class="cls-21" cx="527.15" cy="299.18" r="1.19"/><circle class="cls-21" cx="522.58" cy="299.18" r="1.19"/><circle class="cls-21" cx="518.02" cy="299.18" r="1.19"/><circle class="cls-21" cx="513.46" cy="299.18" r="1.19"/><circle class="cls-21" cx="508.9" cy="299.18" r="1.19"/><circle class="cls-21" cx="504.33" cy="299.18" r="1.19"/><circle class="cls-21" cx="499.77" cy="299.18" r="1.19"/><circle class="cls-21" cx="536.27" cy="299.18" r="1.19"/><circle class="cls-21" cx="549.96" cy="299.18" r="1.19"/><circle class="cls-21" cx="554.52" cy="303.16" r="1.19"/><circle class="cls-21" cx="545.4" cy="303.16" r="1.19"/><circle class="cls-21" cx="540.84" cy="303.16" r="1.19"/><circle class="cls-21" cx="531.71" cy="303.16" r="1.19"/><circle class="cls-21" cx="527.15" cy="303.16" r="1.19"/><circle class="cls-21" cx="522.58" cy="303.16" r="1.19"/><circle class="cls-21" cx="518.02" cy="303.16" r="1.19"/><circle class="cls-21" cx="513.46" cy="303.16" r="1.19"/><circle class="cls-21" cx="508.9" cy="303.16" r="1.19"/><circle class="cls-21" cx="504.33" cy="303.16" r="1.19"/><circle class="cls-21" cx="536.27" cy="303.16" r="1.19"/><circle class="cls-21" cx="549.96" cy="303.16" r="1.19"/><circle class="cls-21" cx="604.83" cy="299.18" r="1.19"/><circle class="cls-21" cx="595.7" cy="299.18" r="1.19"/><circle class="cls-21" cx="591.14" cy="299.18" r="1.19"/><circle class="cls-21" cx="582.02" cy="299.18" r="1.19"/><circle class="cls-21" cx="577.45" cy="299.18" r="1.19"/><circle class="cls-21" cx="572.89" cy="299.18" r="1.19"/><circle class="cls-21" cx="568.33" cy="299.18" r="1.19"/><circle class="cls-21" cx="563.77" cy="299.18" r="1.19"/><circle class="cls-21" cx="559.2" cy="299.18" r="1.19"/><circle class="cls-21" cx="586.58" cy="299.18" r="1.19"/><circle class="cls-21" cx="600.27" cy="299.18" r="1.19"/><circle class="cls-21" cx="604.83" cy="303.16" r="1.19"/><circle class="cls-21" cx="595.7" cy="303.16" r="1.19"/><circle class="cls-21" cx="591.14" cy="303.16" r="1.19"/><circle class="cls-21" cx="582.02" cy="303.16" r="1.19"/><circle class="cls-21" cx="577.45" cy="303.16" r="1.19"/><circle class="cls-21" cx="572.89" cy="303.16" r="1.19"/><circle class="cls-21" cx="568.33" cy="303.16" r="1.19"/><circle class="cls-21" cx="563.77" cy="303.16" r="1.19"/><circle class="cls-21" cx="559.2" cy="303.16" r="1.19"/><circle class="cls-21" cx="586.58" cy="303.16" r="1.19"/><circle class="cls-21" cx="600.27" cy="303.16" r="1.19"/><circle class="cls-21" cx="554.52" cy="316.42" r="1.19"/><circle class="cls-21" cx="545.4" cy="316.42" r="1.19"/><circle class="cls-21" cx="540.84" cy="316.42" r="1.19"/><circle class="cls-21" cx="531.71" cy="316.42" r="1.19"/><circle class="cls-21" cx="527.15" cy="316.42" r="1.19"/><circle class="cls-21" cx="522.58" cy="316.42" r="1.19"/><circle class="cls-21" cx="518.02" cy="316.42" r="1.19"/><circle class="cls-21" cx="513.46" cy="316.42" r="1.19"/><circle class="cls-21" cx="508.9" cy="316.42" r="1.19"/><circle class="cls-21" cx="504.33" cy="316.42" r="1.19"/><circle class="cls-21" cx="499.77" cy="316.42" r="1.19"/><circle class="cls-21" cx="536.27" cy="316.42" r="1.19"/><circle class="cls-21" cx="549.96" cy="316.42" r="1.19"/><circle class="cls-21" cx="554.52" cy="312.45" r="1.19"/><circle class="cls-21" cx="545.4" cy="312.45" r="1.19"/><circle class="cls-21" cx="540.84" cy="312.45" r="1.19"/><circle class="cls-21" cx="531.71" cy="312.45" r="1.19"/><circle class="cls-21" cx="527.15" cy="312.45" r="1.19"/><circle class="cls-21" cx="522.58" cy="312.45" r="1.19"/><circle class="cls-21" cx="518.02" cy="312.45" r="1.19"/><circle class="cls-21" cx="513.46" cy="312.45" r="1.19"/><circle class="cls-21" cx="508.9" cy="312.45" r="1.19"/><circle class="cls-21" cx="504.33" cy="312.45" r="1.19"/><circle class="cls-21" cx="536.27" cy="312.45" r="1.19"/><circle class="cls-21" cx="549.96" cy="312.45" r="1.19"/><circle class="cls-21" cx="604.83" cy="316.42" r="1.19"/><circle class="cls-21" cx="595.7" cy="316.42" r="1.19"/><circle class="cls-21" cx="591.14" cy="316.42" r="1.19"/><circle class="cls-21" cx="582.02" cy="316.42" r="1.19"/><circle class="cls-21" cx="577.45" cy="316.42" r="1.19"/><circle class="cls-21" cx="572.89" cy="316.42" r="1.19"/><circle class="cls-21" cx="568.33" cy="316.42" r="1.19"/><circle class="cls-21" cx="563.77" cy="316.42" r="1.19"/><circle class="cls-21" cx="559.2" cy="316.42" r="1.19"/><circle class="cls-21" cx="586.58" cy="316.42" r="1.19"/><circle class="cls-21" cx="600.27" cy="316.42" r="1.19"/><circle class="cls-21" cx="604.83" cy="312.45" r="1.19"/><circle class="cls-21" cx="604.83" cy="307.75" r="1.19"/><circle class="cls-21" cx="577.45" cy="312.45" r="1.19"/><circle class="cls-21" cx="572.89" cy="312.45" r="1.19"/><circle class="cls-21" cx="568.33" cy="312.45" r="1.19"/><circle class="cls-21" cx="563.77" cy="312.45" r="1.19"/><circle class="cls-21" cx="559.2" cy="312.45" r="1.19"/><circle class="cls-21" cx="554.52" cy="307.75" r="1.19"/><circle class="cls-21" cx="577.45" cy="307.75" r="1.19"/><circle class="cls-21" cx="572.89" cy="307.75" r="1.19"/><circle class="cls-21" cx="568.33" cy="307.75" r="1.19"/><circle class="cls-21" cx="563.77" cy="307.75" r="1.19"/><circle class="cls-21" cx="559.2" cy="307.75" r="1.19"/><circle class="cls-21" cx="423.36" cy="316.42" r="1.19"/><circle class="cls-21" cx="432.49" cy="316.42" r="1.19"/><circle class="cls-21" cx="437.05" cy="316.42" r="1.19"/><circle class="cls-21" cx="446.18" cy="316.42" r="1.19"/><circle class="cls-21" cx="450.74" cy="316.42" r="1.19"/><circle class="cls-21" cx="455.3" cy="316.42" r="1.19"/><circle class="cls-21" cx="459.86" cy="316.42" r="1.19"/><circle class="cls-21" cx="464.43" cy="316.42" r="1.19"/><circle class="cls-21" cx="468.99" cy="316.42" r="1.19"/><circle class="cls-21" cx="473.55" cy="316.42" r="1.19"/><circle class="cls-21" cx="478.11" cy="316.42" r="1.19"/><circle class="cls-21" cx="441.61" cy="316.42" r="1.19"/><circle class="cls-21" cx="427.92" cy="316.42" r="1.19"/><circle class="cls-21" cx="373.17" cy="316.42" r="1.19"/><circle class="cls-21" cx="382.3" cy="316.42" r="1.19"/><circle class="cls-21" cx="386.86" cy="316.42" r="1.19"/><circle class="cls-21" cx="395.99" cy="316.42" r="1.19"/><circle class="cls-21" cx="400.55" cy="316.42" r="1.19"/><circle class="cls-21" cx="405.11" cy="316.42" r="1.19"/><circle class="cls-21" cx="409.67" cy="316.42" r="1.19"/><circle class="cls-21" cx="414.24" cy="316.42" r="1.19"/><circle class="cls-21" cx="418.8" cy="316.42" r="1.19"/><circle class="cls-21" cx="423.36" cy="316.42" r="1.19"/><circle class="cls-21" cx="391.42" cy="316.42" r="1.19"/><circle class="cls-21" cx="377.74" cy="316.42" r="1.19"/><circle class="cls-21" cx="373.17" cy="299.18" r="1.19"/><circle class="cls-21" cx="382.3" cy="299.18" r="1.19"/><circle class="cls-21" cx="377.74" cy="299.18" r="1.19"/><circle class="cls-21" cx="423.36" cy="312.45" r="1.19"/><circle class="cls-21" cx="382.3" cy="303.16" r="1.19"/><circle class="cls-21" cx="382.3" cy="307.75" r="1.19"/><circle class="cls-21" cx="382.3" cy="312.45" r="1.19"/><circle class="cls-21" cx="432.49" cy="312.45" r="1.19"/><circle class="cls-21" cx="437.05" cy="312.45" r="1.19"/><circle class="cls-21" cx="446.18" cy="312.45" r="1.19"/><circle class="cls-21" cx="450.74" cy="312.45" r="1.19"/><circle class="cls-21" cx="455.3" cy="312.45" r="1.19"/><circle class="cls-21" cx="459.86" cy="312.45" r="1.19"/><circle class="cls-21" cx="464.43" cy="312.45" r="1.19"/><circle class="cls-21" cx="468.99" cy="312.45" r="1.19"/><circle class="cls-21" cx="473.55" cy="312.45" r="1.19"/><circle class="cls-21" cx="441.61" cy="312.45" r="1.19"/><circle class="cls-21" cx="427.92" cy="312.45" r="1.19"/><circle class="cls-35" cx="488.88" cy="307.75" r="8.67"/><rect class="cls-10" x="608.54" y="295.17" width="3.27" height="25.15"/><path class="cls-20" d="M85,85A34.57,34.57,0,1,1,119.6,50.41,34.6,34.6,0,0,1,85,85Z" transform="translate(0.36 4)"/><path class="cls-6" d="M100.52,62.42a4.47,4.47,0,0,0-2-1.38l-1.41-.78-1.66-.92q-0.74-.42-1.4-0.81l-0.65-.46a7.27,7.27,0,0,0-.93-0.56,1.7,1.7,0,0,0-.75-0.18,2.17,2.17,0,0,0-1.31.74A12.76,12.76,0,0,0,89,59.69a15.72,15.72,0,0,1-1.38,1.62,2,2,0,0,1-1.2.75,1.8,1.8,0,0,1-.59-0.13c-0.23-.09-0.41-0.16-0.54-0.22s-0.33-.18-0.63-0.37l-0.5-.3A25.9,25.9,0,0,1,73.47,50.34l-0.3-.5c-0.18-.3-0.31-0.51-0.37-0.63s-0.13-.3-0.22-0.54a1.79,1.79,0,0,1-.13-0.59,2,2,0,0,1,.75-1.2,15.89,15.89,0,0,1,1.62-1.38,12.81,12.81,0,0,0,1.62-1.44,2.16,2.16,0,0,0,.75-1.31A1.7,1.7,0,0,0,77,42a7.2,7.2,0,0,0-.56-0.93L76,40.44q-0.39-.65-0.81-1.4t-0.92-1.66q-0.5-.91-0.78-1.41a4.49,4.49,0,0,0-1.39-2,1.46,1.46,0,0,0-.55-0.08,8.65,8.65,0,0,0-1.84.26,10.37,10.37,0,0,0-1.79.55q-1.31.55-2.77,3.19a9.7,9.7,0,0,0-1.24,6.23,11.31,11.31,0,0,0,.33,1.5q0.24,0.84.38,1.24t0.54,1.45q0.39,1,.47,1.28a23.76,23.76,0,0,0,2.17,4.57A38.72,38.72,0,0,0,73.4,61.1a38.8,38.8,0,0,0,6.91,5.63,23.63,23.63,0,0,0,4.57,2.17l1.28,0.47,1.45,0.54c0.27,0.1.68,0.22,1.24,0.38a11.35,11.35,0,0,0,1.5.33,10,10,0,0,0,1.37.09,10.14,10.14,0,0,0,4.86-1.33q2.64-1.46,3.19-2.77a10.34,10.34,0,0,0,.55-1.79A8.64,8.64,0,0,0,100.6,63a1.45,1.45,0,0,0-.08-0.55h0Zm0,0" transform="translate(0.36 4)"/><path class="cls-38" d="M101.29,49.37A15.47,15.47,0,0,0,85.82,33.9" transform="translate(0.36 4)"/><path class="cls-38" d="M96.49,49.37A10.67,10.67,0,0,0,85.82,38.7" transform="translate(0.36 4)"/><path class="cls-38" d="M91.7,49.37a5.88,5.88,0,0,0-5.88-5.88" transform="translate(0.36 4)"/><line class="cls-39" x1="436.61" y1="244.78" x2="436.61" y2="244.78"/><line class="cls-40" x1="442.59" y1="244.78" x2="481.42" y2="244.78"/><line class="cls-39" x1="484.41" y1="244.78" x2="484.41" y2="244.78"/><line class="cls-41" x1="484.41" y1="249.02" x2="484.41" y2="251.14"/><line class="cls-39" x1="484.41" y1="253.25" x2="484.41" y2="253.25"/><line class="cls-42" x1="169.83" y1="253.25" x2="169.83" y2="253.25"/><line class="cls-43" x1="169.83" y1="249.02" x2="169.83" y2="246.9"/><line class="cls-42" x1="169.83" y1="244.78" x2="169.83" y2="244.78"/><line class="cls-44" x1="176.51" y1="244.78" x2="193.2" y2="244.78"/><line class="cls-42" x1="196.53" y1="244.78" x2="196.53" y2="244.78"/><polyline class="cls-22" points="175.53 216.01 175.53 223.82 312.57 223.82 312.57 216.01"/><line class="cls-22" x1="244.92" y1="223.82" x2="244.92" y2="230.76"/><polyline class="cls-22" points="315.84 216.01 315.84 223.82 472.46 223.82 472.46 216.01"/><line class="cls-22" x1="393.4" y1="223.82" x2="393.4" y2="230.76"/><text class="cls-45" transform="translate(409.67 360.96)">N<tspan x="6.58" y="0">a</tspan><tspan x="11.04" y="0">me</tspan><tspan x="22.91" y="0">, </tspan><tspan x="26.43" y="0">A</tspan><tspan x="32.38" y="0">c</tspan><tspan x="36.44" y="0">c</tspan><tspan x="40.5" y="0">o</tspan><tspan x="45.42" y="0">u</tspan><tspan x="50.25" y="0">n</tspan><tspan x="55.07" y="0">t</tspan><tspan x="58.47" y="0">, </tspan><tspan x="61.98" y="0">E</tspan><tspan x="67.21" y="0">x</tspan><tspan x="71.64" y="0">p</tspan><tspan x="76.46" y="0">i</tspan><tspan x="78.65" y="0">r</tspan><tspan x="82.15" y="0">a</tspan><tspan x="86.53" y="0">t</tspan><tspan x="89.74" y="0">i</tspan><tspan x="91.96" y="0">o</tspan><tspan x="96.85" y="0">n</tspan><tspan x="101.84" y="0">, </tspan><tspan x="105.35" y="0">P</tspan><tspan x="110.67" y="0">mt </tspan><tspan x="122.7" y="0">A</tspan><tspan x="128.74" y="0">m</tspan><tspan x="135.97" y="0">o</tspan><tspan x="140.89" y="0">u</tspan><tspan x="145.73" y="0">n</tspan><tspan x="150.55" y="0">t</tspan><tspan x="153.95" y="0">, </tspan><tspan x="157.46" y="0">e</tspan><tspan x="162.02" y="0">t</tspan><tspan x="165.19" y="0">c</tspan><tspan x="169.47" y="0">.</tspan></text><text class="cls-46" transform="translate(740.37 132.46)">4<tspan x="4.86" y="0">4</tspan><tspan x="9.38" y="0">XXXXXXX</tspan><tspan x="47.51" y="0">X</tspan><tspan x="52.54" y="0">888</tspan><tspan x="66.67" y="0">8 </tspan><tspan x="72.71" y="0">V</tspan><tspan x="78.18" y="0">i</tspan><tspan x="80.18" y="0">s</tspan><tspan x="83.62" y="0">u</tspan><tspan x="87.97" y="0">a</tspan><tspan x="91.98" y="0">l </tspan><tspan x="95.48" y="0">Q</tspan><tspan x="101.85" y="0">u</tspan><tspan x="106.28" y="0">e</tspan><tspan x="110.49" y="0">s</tspan><tspan x="114.04" y="0">, </tspan><tspan x="117.2" y="0">N</tspan><tspan x="123.16" y="0">a</tspan><tspan x="127.2" y="0">me</tspan><tspan x="137.95" y="0">, </tspan><tspan x="4.91" y="9.37">A</tspan><tspan x="10.3" y="9.37">cc</tspan><tspan x="17.67" y="9.37">o</tspan><tspan x="22.13" y="9.37">u</tspan><tspan x="26.52" y="9.37">n</tspan><tspan x="30.88" y="9.37">t</tspan><tspan x="33.98" y="9.37">, </tspan><tspan x="37.14" y="9.37">E</tspan><tspan x="41.87" y="9.37">x</tspan><tspan x="45.89" y="9.37">p</tspan><tspan x="50.26" y="9.37">i</tspan><tspan x="52.26" y="9.37">r</tspan><tspan x="55.45" y="9.37">a</tspan><tspan x="59.43" y="9.37">t</tspan><tspan x="62.35" y="9.37">i</tspan><tspan x="64.38" y="9.37">o</tspan><tspan x="68.81" y="9.37">n</tspan><tspan x="73.33" y="9.37">, </tspan><tspan x="76.5" y="9.37">P</tspan><tspan x="81.31" y="9.37">m</tspan><tspan x="87.75" y="9.37">t </tspan><tspan x="92.17" y="9.37">A</tspan><tspan x="97.64" y="9.37">m</tspan><tspan x="104.18" y="9.37">o</tspan><tspan x="108.64" y="9.37">u</tspan><tspan x="113.02" y="9.37">n</tspan><tspan x="117.39" y="9.37">t</tspan><tspan x="120.48" y="9.37">, </tspan><tspan x="123.64" y="9.37">e</tspan><tspan x="127.78" y="9.37">t</tspan><tspan x="130.66" y="9.37">c</tspan><tspan x="134.55" y="9.37">.</tspan></text><rect class="cls-3" x="28.17" y="338.82" width="205.14" height="40.74" rx="4.28" ry="4.28"/><text class="cls-47" transform="translate(76.15 355)">444<tspan x="16.11" y="0">4</tspan><tspan x="21.07" y="0">555</tspan><tspan x="35.56" y="0">5</tspan><tspan x="40.5" y="0">777</tspan><tspan x="55.97" y="0">7</tspan><tspan x="60.94" y="0">888</tspan><tspan x="76.54" y="0">8 + </tspan><tspan x="89.95" y="0">C</tspan><tspan x="96.1" y="0">V</tspan><tspan x="102.47" y="0">V</tspan></text><text class="cls-45" transform="translate(45.46 366.69)">N<tspan x="6.58" y="0">a</tspan><tspan x="11.04" y="0">me</tspan><tspan x="22.91" y="0">, </tspan><tspan x="26.43" y="0">A</tspan><tspan x="32.38" y="0">c</tspan><tspan x="36.44" y="0">c</tspan><tspan x="40.5" y="0">o</tspan><tspan x="45.42" y="0">u</tspan><tspan x="50.25" y="0">n</tspan><tspan x="55.07" y="0">t</tspan><tspan x="58.47" y="0">, </tspan><tspan x="61.98" y="0">E</tspan><tspan x="67.21" y="0">x</tspan><tspan x="71.64" y="0">p</tspan><tspan x="76.46" y="0">i</tspan><tspan x="78.65" y="0">r</tspan><tspan x="82.15" y="0">a</tspan><tspan x="86.53" y="0">t</tspan><tspan x="89.74" y="0">i</tspan><tspan x="91.96" y="0">o</tspan><tspan x="96.85" y="0">n</tspan><tspan x="101.84" y="0">, </tspan><tspan x="105.35" y="0">P</tspan><tspan x="110.67" y="0">mt </tspan><tspan x="122.7" y="0">A</tspan><tspan x="128.74" y="0">m</tspan><tspan x="135.97" y="0">o</tspan><tspan x="140.89" y="0">u</tspan><tspan x="145.73" y="0">n</tspan><tspan x="150.55" y="0">t</tspan><tspan x="153.95" y="0">, </tspan><tspan x="157.46" y="0">e</tspan><tspan x="162.02" y="0">t</tspan><tspan x="165.19" y="0">c</tspan><tspan x="169.47" y="0">.</tspan></text><g id="gCI7Cu.tif"><path class="cls-6" d="M260.28,110.49s0-.09,0-0.14c0-1,0-2,0-3a4.54,4.54,0,0,1,1.55-3.27,4.62,4.62,0,0,1,4.88-1,4.67,4.67,0,0,1,3.21,3.82,11.26,11.26,0,0,1,.07,1.69c0,0.6,0,1.19,0,1.79,0,0.06,0,.12,0,0.14a3.18,3.18,0,0,1,.5.21,0.71,0.71,0,0,1,.32.64c0,2.26,0,4.51,0,6.77a1.52,1.52,0,0,1-1.58,1.54h-8.26a1.52,1.52,0,0,1-1.54-1.17,2.08,2.08,0,0,1,0-.49q0-3.24,0-6.47A0.82,0.82,0,0,1,260.28,110.49Zm8.25,0c0-.06,0-0.1,0-0.14q0-1.56,0-3.12a1,1,0,0,0,0-.15,3.38,3.38,0,0,0-5-2.44,3.19,3.19,0,0,0-1.7,2.9q0,1.37,0,2.74v0.2h6.71ZM266.23,117c0-.1,0-0.17,0-0.24-0.12-.65-0.24-1.3-0.35-2a0.29,0.29,0,0,1,.05-0.21,1,1,0,0,0-.07-1.35,1,1,0,0,0-1.34,1.35,0.26,0.26,0,0,1,.05.19c-0.08.47-.17,0.94-0.25,1.42,0,0.26-.09.52-0.14,0.79h2.09Z" transform="translate(0.36 4)"/></g><text class="cls-48" transform="translate(283.14 119.98)">S<tspan x="5.28" y="0">E</tspan><tspan x="10.63" y="0">C</tspan><tspan x="17.06" y="0">U</tspan><tspan x="24.15" y="0">RE </tspan><tspan x="37.81" y="0">D</tspan><tspan x="44.76" y="0">A</tspan><tspan x="50.92" y="0">T</tspan><tspan x="55.96" y="0">A </tspan><tspan x="64.64" y="0">C</tspan><tspan x="71.03" y="0">ENT</tspan><tspan x="89.53" y="0">E</tspan><tspan x="95.02" y="0">R</tspan></text><line class="cls-49" x1="88.18" y1="277.54" x2="88.18" y2="277.54"/><line class="cls-50" x1="83.18" y1="277.54" x2="75.66" y2="277.54"/><line class="cls-49" x1="73.16" y1="277.54" x2="73.16" y2="277.54"/><line class="cls-51" x1="73.16" y1="271.88" x2="73.16" y2="252.06"/><line class="cls-49" x1="73.16" y1="249.23" x2="73.16" y2="249.23"/><text class="cls-25" transform="translate(33.16 170.17)">C<tspan x="6.54" y="0">A</tspan><tspan x="13.42" y="0">L</tspan><tspan x="18.36" y="0">L R</tspan><tspan x="31.49" y="0">E</tspan><tspan x="36.84" y="0">C</tspan><tspan x="43.11" y="0">O</tspan><tspan x="50.87" y="0">R</tspan><tspan x="57.17" y="0">D</tspan><tspan x="64.37" y="0">I</tspan><tspan x="67.39" y="0">N</tspan><tspan x="74.75" y="0">G</tspan></text><line class="cls-52" x1="18.35" y1="213.07" x2="39.63" y2="213.07"/><g class="cls-30"><path class="cls-3" d="M348.32,347.43a20.23,20.23,0,0,0-37.2-4.76,15.16,15.16,0,0,0-16.4,8.67,10.9,10.9,0,1,0-3.4,21.43v0H345A12.9,12.9,0,0,0,348.32,347.43Z" transform="translate(0.36 4)"/><path class="cls-31" d="M345,369.9H291.32v0a10.9,10.9,0,0,1-10.14-9.43,10.88,10.88,0,0,0,10.14,12.32v0H345a12.88,12.88,0,0,0,12.81-14.34A12.89,12.89,0,0,1,345,369.9Z" transform="translate(0.36 4)"/></g><polygon class="cls-36" points="333.12 353.41 321.95 353.41 321.95 350.82 313.69 355.03 321.95 359.24 321.95 356.65 333.12 356.65 333.12 353.41"/><polygon class="cls-36" points="313.69 361.82 324.86 361.82 324.86 359.24 333.12 363.44 324.86 367.65 324.86 365.07 313.69 365.07 313.69 361.82"/><line class="cls-42" x1="321.73" y1="397.67" x2="321.73" y2="397.67"/><line class="cls-53" x1="321.73" y1="403.62" x2="321.73" y2="454.18"/><line class="cls-42" x1="321.73" y1="457.16" x2="321.73" y2="457.16"/><line class="cls-54" x1="317.79" y1="457.16" x2="315.82" y2="457.16"/><line class="cls-42" x1="313.84" y1="457.16" x2="313.84" y2="457.16"/><line class="cls-55" x1="797.11" y1="227.53" x2="824.69" y2="227.53"/><polygon class="cls-56" points="479.34 257.68 489.48 257.68 484.41 265.94 479.34 257.68"/><polygon class="cls-56" points="671.42 232.26 671.42 222.12 679.69 227.19 671.42 232.26"/><polygon class="cls-56" points="824.69 232.34 824.69 222.21 832.96 227.28 824.69 232.34"/><polygon class="cls-56" points="666.36 302.59 666.36 312.73 658.09 307.66 666.36 302.59"/><polygon class="cls-56" points="319.48 302.54 319.48 312.67 311.21 307.6 319.48 302.54"/><polygon class="cls-5" points="309.42 452.02 309.42 462.16 301.15 457.09 309.42 452.02"/><polygon class="cls-57" points="162.65 61.67 162.65 51.53 170.92 56.6 162.65 61.67"/><polygon class="cls-57" points="321.63 84.73 331.76 84.73 326.69 92.99 321.63 84.73"/><polygon class="cls-5" points="164.76 257.68 174.9 257.68 169.83 265.94 164.76 257.68"/><polygon class="cls-5" points="268.02 364.92 268.02 354.78 276.29 359.85 268.02 364.92"/><polygon class="cls-58" points="14.97 208 14.97 218.14 6.7 213.07 14.97 208"/><rect class="cls-3" x="125.54" y="329.98" width="9.69" height="9.69" transform="translate(-198.21 194.26) rotate(-45)"/><line class="cls-59" x1="241.52" y1="359.85" x2="269.33" y2="359.85"/><rect class="cls-11" x="842.28" y="190.63" width="117.1" height="74.58"/><path class="cls-60" d="M960.68,260.4V188a4.58,4.58,0,0,0-4.57-4.57H844.8a4.58,4.58,0,0,0-4.57,4.57V260.4a4.55,4.55,0,0,0,1.3,3.18H959.38A4.55,4.55,0,0,0,960.68,260.4Zm-4.29-1.95H843.84V188.11H956.39v70.35Z" transform="translate(0.36 4)"/><polygon class="cls-61" points="959.74 267.58 841.89 267.58 827.15 267.58 827.15 270.24 974.55 270.24 974.55 267.58 959.74 267.58"/><circle class="cls-62" cx="900.88" cy="190" r="0.63"/><path class="cls-63" d="M900.46,263.58H889.9a2.11,2.11,0,0,0,1.95,1.8h16.89a2.11,2.11,0,0,0,2-1.8H900.46Z" transform="translate(0.36 4)"/><path class="cls-24" d="M826.79,266.24s0.9,2,8.53,2H965.66c7.63,0,8.53-2,8.53-2" transform="translate(0.36 4)"/><rect class="cls-56" x="859.01" y="201.87" width="84.99" height="52.52" rx="1.27" ry="1.27"/><text class="cls-25" transform="translate(859.28 174.66)">C<tspan x="6.37" y="0">RM INT</tspan><tspan x="39.49" y="0">E</tspan><tspan x="44.97" y="0">R</tspan><tspan x="51.27" y="0">F</tspan><tspan x="56.17" y="0">A</tspan><tspan x="62.8" y="0">C</tspan><tspan x="69.19" y="0">E</tspan></text><text class="cls-64" transform="translate(881.37 212.57)">C<tspan x="2.61" y="0">RED</tspan><tspan x="10.38" y="0">I</tspan><tspan x="11.63" y="0">T </tspan><tspan x="14.65" y="0">C</tspan><tspan x="17.33" y="0">A</tspan><tspan x="20.13" y="0">R</tspan><tspan x="22.71" y="0">D </tspan><tspan x="26.32" y="0">EN</tspan><tspan x="31.55" y="0">T</tspan><tspan x="33.89" y="0">R</tspan><tspan x="36.36" y="0">Y</tspan></text><rect class="cls-65" x="869.15" y="217.96" width="62.58" height="4.86" rx="1.02" ry="1.02"/><rect class="cls-65" x="869.15" y="224.07" width="62.58" height="4.86" rx="1.02" ry="1.02"/><rect class="cls-65" x="869.15" y="230.07" width="62.58" height="4.86" rx="1.02" ry="1.02"/><rect class="cls-6" x="889.36" y="238.69" width="24.46" height="7.71" rx="1.01" ry="1.01"/><text class="cls-66" transform="translate(896.62 243.6)">S<tspan x="1.47" y="0">U</tspan><tspan x="3.45" y="0">B</tspan><tspan x="5.22" y="0">M</tspan><tspan x="7.71" y="0">I</tspan><tspan x="8.56" y="0">T</tspan></text><rect class="cls-6" x="642.81" y="221.79" width="10.26" height="10.81"/><line class="cls-39" x1="593.79" y1="284.76" x2="593.79" y2="284.76"/><line class="cls-67" x1="593.79" y1="279.01" x2="593.79" y2="230.07"/><line class="cls-39" x1="593.79" y1="227.19" x2="593.79" y2="227.19"/><line class="cls-68" x1="599.84" y1="227.19" x2="663.33" y2="227.19"/><line class="cls-39" x1="666.36" y1="227.19" x2="666.36" y2="227.19"/><polyline class="cls-55" points="902.13 282.97 902.13 307.66 667.33 307.66"/><line class="cls-69" x1="343.79" y1="307.75" x2="321.76" y2="307.75"/><path class="cls-70" d="M72.8,239.12a29.55,29.55,0,1,1,29.55-29.55A29.59,29.59,0,0,1,72.8,239.12Z" transform="translate(0.36 4)"/><rect class="cls-58" x="51.42" y="209.81" width="1.07" height="7.52" rx="0.54" ry="0.54"/><rect class="cls-58" x="53.81" y="208.64" width="1.07" height="9.86" rx="0.54" ry="0.54"/><rect class="cls-58" x="56.2" y="206.7" width="1.07" height="13.73" rx="0.54" ry="0.54"/><rect class="cls-58" x="58.59" y="199.04" width="1.07" height="29.06" rx="0.54" ry="0.54"/><rect class="cls-58" x="60.98" y="201.92" width="1.07" height="23.31" rx="0.54" ry="0.54"/><rect class="cls-58" x="63.38" y="209.41" width="1.07" height="8.33" rx="0.54" ry="0.54"/><rect class="cls-58" x="65.77" y="206.5" width="1.07" height="14.14" rx="0.54" ry="0.54"/><rect class="cls-58" x="68.16" y="196.71" width="1.07" height="33.72" rx="0.54" ry="0.54"/><rect class="cls-58" x="70.55" y="200.98" width="1.07" height="25.19" rx="0.54" ry="0.54"/><rect class="cls-58" x="72.94" y="206.25" width="1.07" height="14.64" rx="0.54" ry="0.54"/><rect class="cls-58" x="75.33" y="208.64" width="1.07" height="9.86" rx="0.54" ry="0.54"/><rect class="cls-58" x="77.72" y="211.33" width="1.07" height="4.48" rx="0.54" ry="0.54"/><rect class="cls-58" x="80.12" y="210.05" width="1.07" height="7.04" rx="0.54" ry="0.54"/><rect class="cls-58" x="82.51" y="208.67" width="1.07" height="9.81" rx="0.54" ry="0.54"/><rect class="cls-58" x="84.9" y="200.04" width="1.07" height="27.07" rx="0.54" ry="0.54"/><rect class="cls-58" x="87.29" y="205.26" width="1.07" height="16.62" rx="0.54" ry="0.54"/><rect class="cls-58" x="89.68" y="209.66" width="1.07" height="7.82" rx="0.54" ry="0.54"/><rect class="cls-58" x="92.07" y="211.33" width="1.07" height="4.48" rx="0.54" ry="0.54"/><rect class="cls-58" x="94.46" y="210.64" width="1.07" height="5.85" rx="0.54" ry="0.54"/><path class="cls-58" d="M49.36,210.07H43.25v-1h6.11a0.5,0.5,0,0,1,.5.5h0A0.5,0.5,0,0,1,49.36,210.07Z" transform="translate(0.36 4)"/><path class="cls-58" d="M102.36,210.07H96.67a0.5,0.5,0,0,1-.5-0.5h0a0.5,0.5,0,0,1,.5-0.5h5.69v1Z" transform="translate(0.36 4)"/><text class="cls-71" transform="translate(723.93 357.91)">N<tspan x="6.68" y="0">o </tspan><tspan x="13.17" y="0">P</tspan><tspan x="18.15" y="0">A</tspan><tspan x="24.18" y="0">N </tspan><tspan x="32.41" y="0">d</tspan><tspan x="37.23" y="0">a</tspan><tspan x="41.61" y="0">t</tspan><tspan x="44.91" y="0">a </tspan><tspan x="50.99" y="0">n</tspan><tspan x="55.91" y="0">ee</tspan><tspan x="65.2" y="0">d</tspan><tspan x="70.06" y="0">s </tspan><tspan x="75.5" y="0">t</tspan><tspan x="78.66" y="0">o </tspan><tspan x="85.16" y="0">b</tspan><tspan x="90.14" y="0">e </tspan><tspan x="96.36" y="0">p</tspan><tspan x="101.19" y="0">a</tspan><tspan x="105.63" y="0">s</tspan><tspan x="109.42" y="0">s</tspan><tspan x="113.25" y="0">e</tspan><tspan x="117.9" y="0">d </tspan><tspan x="124.42" y="0">t</tspan><tspan x="127.59" y="0">o </tspan><tspan x="134.08" y="0">t</tspan><tspan x="137.33" y="0">h</tspan><tspan x="142.26" y="0">e </tspan><tspan x="148.48" y="0">d</tspan><tspan x="153.39" y="0">e</tspan><tspan x="158.03" y="0">s</tspan><tspan x="161.79" y="0">k</tspan><tspan x="166.52" y="0">t</tspan><tspan x="169.69" y="0">o</tspan><tspan x="174.57" y="0">p</tspan><tspan x="179.39" y="0">, </tspan><tspan x="182.9" y="0">a</tspan><tspan x="187.32" y="0">l</tspan><tspan x="189.47" y="0">l </tspan><tspan x="0" y="10.41">p</tspan><tspan x="4.83" y="10.41">a</tspan><tspan x="9.17" y="10.41">y</tspan><tspan x="13.69" y="10.41">m</tspan><tspan x="20.92" y="10.41">e</tspan><tspan x="25.51" y="10.41">n</tspan><tspan x="30.32" y="10.41">t </tspan><tspan x="35.23" y="10.41">p</tspan><tspan x="40.12" y="10.41">r</tspan><tspan x="43.58" y="10.41">o</tspan><tspan x="48.52" y="10.41">c</tspan><tspan x="52.57" y="10.41">e</tspan><tspan x="57.21" y="10.41">s</tspan><tspan x="61" y="10.41">s</tspan><tspan x="64.71" y="10.41">i</tspan><tspan x="66.9" y="10.41">n</tspan><tspan x="71.78" y="10.41">g </tspan><tspan x="77.89" y="10.41">c</tspan><tspan x="82.07" y="10.41">a</tspan><tspan x="86.53" y="10.41">n </tspan><tspan x="93.02" y="10.41">o</tspan><tspan x="97.96" y="10.41">c</tspan><tspan x="102.02" y="10.41">c</tspan><tspan x="106.14" y="10.41">u</tspan><tspan x="110.98" y="10.41">r </tspan><tspan x="116.15" y="10.41">b</tspan><tspan x="121.13" y="10.41">e</tspan><tspan x="125.69" y="10.41">t</tspan><tspan x="129.15" y="10.41">w</tspan><tspan x="135.8" y="10.41">e</tspan><tspan x="140.45" y="10.41">e</tspan><tspan x="145.04" y="10.41">n </tspan><tspan x="151.54" y="10.41">t</tspan><tspan x="154.79" y="10.41">h</tspan><tspan x="159.71" y="10.41">e </tspan><tspan x="165.93" y="10.41">i</tspan><tspan x="168.21" y="10.41">G</tspan><tspan x="174.72" y="10.41">u</tspan><tspan x="179.52" y="10.41">a</tspan><tspan x="183.98" y="10.41">r</tspan><tspan x="187.45" y="10.41">d </tspan><tspan x="0" y="20.82">s</tspan><tspan x="3.83" y="20.82">e</tspan><tspan x="8.42" y="20.82">r</tspan><tspan x="12.2" y="20.82">v</tspan><tspan x="16.59" y="20.82">e</tspan><tspan x="21.18" y="20.82">r </tspan><tspan x="26.35" y="20.82">a</tspan><tspan x="30.81" y="20.82">n</tspan><tspan x="35.75" y="20.82">d </tspan><tspan x="42.27" y="20.82">t</tspan><tspan x="45.53" y="20.82">h</tspan><tspan x="50.45" y="20.82">e </tspan><tspan x="56.67" y="20.82">b</tspan><tspan x="61.54" y="20.82">i</tspan><tspan x="63.7" y="20.82">ll</tspan><tspan x="67.99" y="20.82">i</tspan><tspan x="70.18" y="20.82">n</tspan><tspan x="75.07" y="20.82">g </tspan><tspan x="81.17" y="20.82">i</tspan><tspan x="83.36" y="20.82">n</tspan><tspan x="88.18" y="20.82">t</tspan><tspan x="91.34" y="20.82">e</tspan><tspan x="95.93" y="20.82">r</tspan><tspan x="99.7" y="20.82">f</tspan><tspan x="102.7" y="20.82">a</tspan><tspan x="107.21" y="20.82">c</tspan><tspan x="111.26" y="20.82">e</tspan><tspan x="115.92" y="20.82">.</tspan></text><circle class="cls-72" cx="416.68" cy="43.55" r="0.32"/><g class="cls-73"><circle class="cls-74" cx="423.79" cy="54.74" r="11.24"/></g><g class="cls-73"><polygon class="cls-75" points="441.96 70.99 380.21 70.99 379.91 0 441.81 0.15 441.96 70.99"/></g><path class="cls-76" d="M468.63,33.38c-3.47-3.08-5-4.5-9-4.5-5.7,0-10,5.2-10,10.79,0,5.84,4.27,10.85,10,10.85,5.39,0,9.54-3.85,9.54-8.62h-9.48V37.24H474v3.11a14.34,14.34,0,0,1-14.38,14.8c-8,0-14.83-6.84-14.83-15.49s6.81-15.49,14.83-15.49c4.74,0,7.94,1.41,12.05,5.74Z" transform="translate(0.36 4)"/><path class="cls-76" d="M494.49,33.78V45.59c0,5.31-3.61,9.58-8.41,9.58-5.32,0-8.87-4.2-8.87-9.58V33.78h4.57V45.59c0,3.07,1.59,5.07,4.17,5.07,2.07,0,4-2,4-5.07V33.78h4.49Z" transform="translate(0.36 4)"/><path class="cls-76" d="M512.93,54.78V43.1c-0.12-3.6-2.39-5.22-5.52-5.22-3.6,0-5.71,3.08-5.71,6.57a5.8,5.8,0,0,0,5.74,6.11c2.31,0,4.06-1.84,5.14-4.07l0,6.48a8.57,8.57,0,0,1-5.53,2.18c-6,0-9.89-4.95-9.89-11,0-5.78,3.62-10.85,10.38-10.85,6.07,0,9.93,4.32,9.93,10.14V54.78h-4.57Z" transform="translate(0.36 4)"/><path class="cls-76" d="M529.12,33.26h2.09s0,3.53,0,4.54c-4.89,0-5.91,2.59-5.91,7.24V54.7h-4.58v-21h4.42V35A7.37,7.37,0,0,1,529.12,33.26Z" transform="translate(0.36 4)"/><path class="cls-76" d="M552.2,24.57v19.2c0,6.66-4.28,11.38-10.06,11.38-6.4,0-10.24-5.46-10.24-11.45a10.12,10.12,0,0,1,9.78-10.42,11.12,11.12,0,0,1,5.62,1.59l0,5.72a7,7,0,0,0-5.24-2.75c-3.44,0-5.62,2.59-5.62,6.21s2,6.49,5.65,6.49c3.05,0,5.52-2.39,5.52-7.24l0-18.76h4.6Z" transform="translate(0.36 4)"/><path class="cls-76" d="M472.68,75.27a2.67,2.67,0,0,0-1.79-.77,2,2,0,1,0,0,4,1.87,1.87,0,0,0,2-1.66H471V76.16h2.71V76.6a2.64,2.64,0,0,1-2.81,2.5,2.63,2.63,0,1,1,0-5.23,3,3,0,0,1,2.29.91Z" transform="translate(0.36 4)"/><path class="cls-76" d="M477.54,75.49v2a1.6,1.6,0,0,1-3.19,0v-2H475v2a0.91,0.91,0,1,0,1.82,0v-2h0.69Z" transform="translate(0.36 4)"/><path class="cls-76" d="M481.21,79V77A1.05,1.05,0,0,0,480,76a1.22,1.22,0,1,0,.9,1.95v0.76a1.5,1.5,0,0,1-1,.34,1.79,1.79,0,0,1-1.78-1.87A1.75,1.75,0,0,1,480,75.42a1.64,1.64,0,0,1,1.82,1.67V79h-0.66Z" transform="translate(0.36 4)"/><path class="cls-76" d="M482.79,75.51h0.69v0.41h0a1.17,1.17,0,0,1,1.06-.48h0.16v0.62h-0.11c-0.69,0-1.1.39-1.1,1.35v1.67h-0.72V75.51Z" transform="translate(0.36 4)"/><path class="cls-76" d="M488.68,73.9v3.32a1.82,1.82,0,0,1-1.85,2,1.85,1.85,0,0,1-1.9-1.95,1.78,1.78,0,0,1,1.77-1.77,2.11,2.11,0,0,1,1,.25V76.4a1.86,1.86,0,0,0-.93-0.31,1.15,1.15,0,0,0-1.21,1.23,1.18,1.18,0,0,0,1.22,1.24A1.24,1.24,0,0,0,488,77.09V73.9h0.67Z" transform="translate(0.36 4)"/><path class="cls-76" d="M490.35,74.34a0.4,0.4,0,1,1-.43.39A0.4,0.4,0,0,1,490.35,74.34ZM490,79.1V75.53h0.72V79.1H490Z" transform="translate(0.36 4)"/><path class="cls-76" d="M491.85,79V76.92a1.68,1.68,0,0,1,3.35,0V79h-0.72V76.92a1,1,0,0,0-1.91,0V79h-0.72Z" transform="translate(0.36 4)"/><path class="cls-76" d="M498.54,78.81a2.26,2.26,0,0,1-.89.23,1.8,1.8,0,1,1,0-3.58,1.76,1.76,0,0,1,1.85,1.71V78.7a1.79,1.79,0,0,1-2,1.91,4.25,4.25,0,0,1-1.24-.2l0.16-.57a4.32,4.32,0,0,0,1,.17,1.12,1.12,0,0,0,1.31-1.09V77.31a1.21,1.21,0,1,0-2.42,0,1.15,1.15,0,0,0,1.26,1.11,1.91,1.91,0,0,0,.88-0.28v0.65Z" transform="translate(0.36 4)"/><path class="cls-76" d="M506.16,74.59h-0.52a2.07,2.07,0,0,0-2.27,1.95,1.93,1.93,0,0,0,2,1.95h0.82v0.65h-0.82a2.63,2.63,0,0,1-2.78-2.6,2.8,2.8,0,0,1,3-2.6h0.6v0.65Z" transform="translate(0.36 4)"/><path class="cls-76" d="M510.19,75.51V77.6a1.68,1.68,0,0,1-3.35,0V75.51h0.72V77.6a1,1,0,0,0,1.91,0V75.51h0.72Z" transform="translate(0.36 4)"/><path class="cls-76" d="M510.67,78.44h2c0.33,0,.47-0.12.47-0.34,0-.65-2.47-0.4-2.47-1.64,0-.63.48-1,1.34-1h1.69v0.62h-1.81c-0.35,0-.46.09-0.47,0.31,0,0.62,2.47.36,2.47,1.64a1,1,0,0,1-1.22,1h-2V78.44Z" transform="translate(0.36 4)"/><path class="cls-76" d="M516.79,76.2h-1.4v1.87c0,0.33.17,0.45,0.54,0.45h0.87v0.62h-1A1.06,1.06,0,0,1,514.66,78V74.68h0.72v0.89h1.4V76.2Z" transform="translate(0.36 4)"/><path class="cls-76" d="M519,75.42a1.86,1.86,0,1,1-2,1.86A1.88,1.88,0,0,1,519,75.42Zm0,3.09a1.23,1.23,0,1,0-1.23-1.23A1.18,1.18,0,0,0,519,78.51Z" transform="translate(0.36 4)"/><path class="cls-76" d="M521.63,79.12V76.7a1.31,1.31,0,0,1,1.4-1.22,1.54,1.54,0,0,0,2.29,0,1.31,1.31,0,0,1,1.4,1.22v2.42H526V76.85a0.68,0.68,0,0,0-.7-0.74,0.72,0.72,0,0,0-.77.85v2.17h-0.72V77A0.72,0.72,0,0,0,523,76.1a0.68,0.68,0,0,0-.7.74v2.27h-0.72Z" transform="translate(0.36 4)"/><path class="cls-76" d="M528.55,77.87l-0.28-.52,1.87-1a1.08,1.08,0,0,0-.86-0.34,1.23,1.23,0,1,0,1.27,1.35l0.7,0.08a1.87,1.87,0,0,1-2,1.66,1.86,1.86,0,1,1,0-3.72,1.94,1.94,0,0,1,1.83,1.13Z" transform="translate(0.36 4)"/><path class="cls-76" d="M531.75,75.55h0.69V76h0a1.17,1.17,0,0,1,1.06-.48h0.16V76.1h-0.11c-0.69,0-1.1.39-1.1,1.35v1.67h-0.72V75.55Z" transform="translate(0.36 4)"/><path class="cls-76" d="M536.21,73.9h3.59v0.65h-1.41V79.1h-0.77V74.55h-1.41V73.9Z" transform="translate(0.36 4)"/><path class="cls-76" d="M540.07,75.53h0.69v0.41h0a1.17,1.17,0,0,1,1.06-.48H542v0.62h-0.11c-0.69,0-1.1.39-1.1,1.35V79.1h-0.72V75.53Z" transform="translate(0.36 4)"/><path class="cls-76" d="M545.85,75.51V77.6a1.68,1.68,0,0,1-3.35,0V75.51h0.72V77.6a1,1,0,0,0,1.91,0V75.51h0.72Z" transform="translate(0.36 4)"/><path class="cls-76" d="M546.33,78.48h2c0.33,0,.47-0.12.47-0.34,0-.65-2.47-0.4-2.47-1.64,0-.63.48-1,1.34-1h1.69v0.62h-1.81c-0.35,0-.46.09-0.47,0.31,0,0.62,2.47.36,2.47,1.64a1,1,0,0,1-1.22,1h-2V78.48Z" transform="translate(0.36 4)"/><path class="cls-76" d="M552.48,76.16h-1.4V78c0,0.33.17,0.45,0.54,0.45h0.87V79.1h-1a1.06,1.06,0,0,1-1.16-1.15V74.64h0.72v0.89h1.4v0.62Z" transform="translate(0.36 4)"/><circle class="cls-76" cx="470.04" cy="68.27" r="1.85"/><circle class="cls-76" cx="474.92" cy="68.27" r="1.85"/><circle class="cls-76" cx="479.53" cy="68.27" r="1.85"/><circle class="cls-76" cx="484.31" cy="68.27" r="1.85"/><circle class="cls-76" cx="536.97" cy="68.27" r="1.85"/><circle class="cls-76" cx="536.97" cy="68.27" r="1.85"/><circle class="cls-76" cx="541.79" cy="68.27" r="1.85"/><circle class="cls-76" cx="546.57" cy="68.27" r="1.85"/><circle class="cls-76" cx="551.44" cy="68.32" r="1.85"/><circle class="cls-77" cx="492.26" cy="68.27" r="1.85"/><circle class="cls-77" cx="497.14" cy="68.21" r="1.85"/><circle class="cls-77" cx="501.91" cy="68.21" r="1.85"/><circle class="cls-77" cx="506.74" cy="68.21" r="1.85"/><circle class="cls-77" cx="514.75" cy="68.21" r="1.85"/><circle class="cls-77" cx="519.52" cy="68.21" r="1.85"/><circle class="cls-77" cx="524.19" cy="68.21" r="1.85"/><circle class="cls-77" cx="529.01" cy="68.21" r="1.85"/><path class="cls-76" d="M444.83,12L558.09,12c3.31,0,7.28,2.66,7.28,6.34V79.42h-1.15v-61c0-2.37-3-5.3-6.25-5.3H444.82V12Z" transform="translate(0.36 4)"/></g></g></svg>